<?xml version="1.0" encoding="UTF-8" standalone="no"?>
<!-- Created with Inkscape (http://www.inkscape.org/) -->

<svg
   xmlns:rendltx="http://NOTSET"
   xmlns:osb="http://www.openswatchbook.org/uri/2009/osb"
   xmlns:dc="http://purl.org/dc/elements/1.1/"
   xmlns:cc="http://creativecommons.org/ns#"
   xmlns:rdf="http://www.w3.org/1999/02/22-rdf-syntax-ns#"
   xmlns:svg="http://www.w3.org/2000/svg"
   xmlns="http://www.w3.org/2000/svg"
   xmlns:xlink="http://www.w3.org/1999/xlink"
   xmlns:sodipodi="http://sodipodi.sourceforge.net/DTD/sodipodi-0.dtd"
   xmlns:inkscape="http://www.inkscape.org/namespaces/inkscape"
   sodipodi:docname="drivetrainhub_math_linalg_line.svg"
   inkscape:version="0.92.4 (5da689c313, 2019-01-14)"
   id="svg8"
   version="1.1"
   viewBox="0 0 60.686355 60.472822"
   height="60.472824mm"
   width="60.686348mm">
  <defs
     id="defs2">
    <pattern
       inkscape:collect="always"
       xlink:href="#pattern7285"
       id="pattern7292"
       patternTransform="matrix(37.795276,0,0,37.795276,-382.80496,5.0913238)" />
    <pattern
       inkscape:collect="always"
       xlink:href="#Checkerboard"
       id="pattern7285"
       patternTransform="matrix(10,0,0,10,3.6046881e-8,-9.7765616)" />
    <pattern
       inkscape:isstock="true"
       inkscape:stockid="Checkerboard"
       id="Checkerboard"
       patternTransform="translate(0,0) scale(10,10)"
       height="2"
       width="2"
       patternUnits="userSpaceOnUse"
       inkscape:collect="always">
      <rect
         id="rect6554"
         height="1"
         width="1"
         y="0"
         x="0"
         style="fill:black;stroke:none" />
      <rect
         id="rect6556"
         height="1"
         width="1"
         y="1"
         x="1"
         style="fill:black;stroke:none" />
    </pattern>
    <linearGradient
       id="linearGradient7251"
       osb:paint="solid">
      <stop
         style="stop-color:#000000;stop-opacity:1;"
         offset="0"
         id="stop7249" />
    </linearGradient>
    <linearGradient
       id="linearGradient7221"
       osb:paint="solid">
      <stop
         style="stop-color:#000000;stop-opacity:1;"
         offset="0"
         id="stop7219" />
    </linearGradient>
    <marker
       inkscape:isstock="true"
       style="overflow:visible"
       id="marker19414"
       refX="0"
       refY="0"
       orient="auto"
       inkscape:stockid="Arrow2Lend">
      <path
         inkscape:connector-curvature="0"
         transform="matrix(-1.1,0,0,-1.1,-1.1,0)"
         d="M 8.7185878,4.0337352 -2.2072895,0.01601326 8.7185884,-4.0017078 c -1.7454984,2.3720609 -1.7354408,5.6174519 -6e-7,8.035443 z"
         style="fill:#000000;fill-opacity:1;fill-rule:evenodd;stroke:#000000;stroke-width:0.625;stroke-linejoin:round;stroke-opacity:1"
         id="path19412" />
    </marker>
    <marker
       inkscape:isstock="true"
       style="overflow:visible"
       id="marker18637"
       refX="0"
       refY="0"
       orient="auto"
       inkscape:stockid="Arrow2Mend">
      <path
         inkscape:connector-curvature="0"
         transform="scale(-0.6)"
         d="M 8.7185878,4.0337352 -2.2072895,0.01601326 8.7185884,-4.0017078 c -1.7454984,2.3720609 -1.7354408,5.6174519 -6e-7,8.035443 z"
         style="fill:#000000;fill-opacity:1;fill-rule:evenodd;stroke:#000000;stroke-width:0.625;stroke-linejoin:round;stroke-opacity:1"
         id="path18635" />
    </marker>
    <marker
       inkscape:stockid="Arrow2Mstart"
       orient="auto"
       refY="0"
       refX="0"
       id="Arrow2Mstart"
       style="overflow:visible"
       inkscape:isstock="true">
      <path
         id="path3087"
         style="fill:#000000;fill-opacity:1;fill-rule:evenodd;stroke:#000000;stroke-width:0.625;stroke-linejoin:round;stroke-opacity:1"
         d="M 8.7185878,4.0337352 -2.2072895,0.01601326 8.7185884,-4.0017078 c -1.7454984,2.3720609 -1.7354408,5.6174519 -6e-7,8.035443 z"
         transform="scale(0.6)"
         inkscape:connector-curvature="0" />
    </marker>
    <marker
       inkscape:stockid="Arrow2Lend"
       orient="auto"
       refY="0"
       refX="0"
       id="Arrow2Lend"
       style="overflow:visible"
       inkscape:isstock="true"
       inkscape:collect="always">
      <path
         id="path3084"
         style="fill:#000000;fill-opacity:1;fill-rule:evenodd;stroke:#000000;stroke-width:0.625;stroke-linejoin:round;stroke-opacity:1"
         d="M 8.7185878,4.0337352 -2.2072895,0.01601326 8.7185884,-4.0017078 c -1.7454984,2.3720609 -1.7354408,5.6174519 -6e-7,8.035443 z"
         transform="matrix(-1.1,0,0,-1.1,-1.1,0)"
         inkscape:connector-curvature="0" />
    </marker>
    <marker
       inkscape:isstock="true"
       style="overflow:visible"
       id="marker17638"
       refX="0"
       refY="0"
       orient="auto"
       inkscape:stockid="Arrow2Mend">
      <path
         inkscape:connector-curvature="0"
         transform="scale(-0.6)"
         d="M 8.7185878,4.0337352 -2.2072895,0.01601326 8.7185884,-4.0017078 c -1.7454984,2.3720609 -1.7354408,5.6174519 -6e-7,8.035443 z"
         style="fill:#000000;fill-opacity:1;fill-rule:evenodd;stroke:#000000;stroke-width:0.625;stroke-linejoin:round;stroke-opacity:1"
         id="path17636" />
    </marker>
    <marker
       inkscape:stockid="TriangleInM"
       orient="auto"
       refY="0"
       refX="0"
       id="TriangleInM"
       style="overflow:visible"
       inkscape:isstock="true">
      <path
         id="path3199"
         d="M 5.77,0 -2.88,5 V -5 Z"
         style="fill:#000000;fill-opacity:1;fill-rule:evenodd;stroke:#000000;stroke-width:1.00000003pt;stroke-opacity:1"
         transform="scale(-0.4)"
         inkscape:connector-curvature="0" />
    </marker>
    <marker
       inkscape:stockid="Arrow1Mend"
       orient="auto"
       refY="0"
       refX="0"
       id="Arrow1Mend"
       style="overflow:visible"
       inkscape:isstock="true">
      <path
         id="path1065"
         d="M 0,0 5,-5 -12.5,0 5,5 Z"
         style="fill:#000000;fill-opacity:1;fill-rule:evenodd;stroke:#000000;stroke-width:1.00000003pt;stroke-opacity:1"
         transform="matrix(-0.4,0,0,-0.4,-4,0)"
         inkscape:connector-curvature="0" />
    </marker>
    <marker
       inkscape:stockid="Arrow1Lstart"
       orient="auto"
       refY="0"
       refX="0"
       id="Arrow1Lstart"
       style="overflow:visible"
       inkscape:isstock="true">
      <path
         id="path1056"
         d="M 0,0 5,-5 -12.5,0 5,5 Z"
         style="fill:#000000;fill-opacity:1;fill-rule:evenodd;stroke:#000000;stroke-width:1.00000003pt;stroke-opacity:1"
         transform="matrix(0.8,0,0,0.8,10,0)"
         inkscape:connector-curvature="0" />
    </marker>
    <marker
       inkscape:stockid="Arrow2Mend"
       orient="auto"
       refY="0"
       refX="0"
       id="Arrow2Mend-7"
       style="overflow:visible"
       inkscape:isstock="true"
       inkscape:collect="always">
      <path
         id="path1083-8"
         style="fill:#000000;fill-opacity:1;fill-rule:evenodd;stroke:#000000;stroke-width:0.625;stroke-linejoin:round;stroke-opacity:1"
         d="M 8.7185878,4.0337352 -2.2072895,0.01601326 8.7185884,-4.0017078 c -1.7454984,2.3720609 -1.7354408,5.6174519 -6e-7,8.035443 z"
         transform="scale(-0.6)"
         inkscape:connector-curvature="0" />
    </marker>
    <marker
       inkscape:stockid="Arrow2Mstart"
       orient="auto"
       refY="0"
       refX="0"
       id="Arrow2Mstart-8"
       style="overflow:visible"
       inkscape:isstock="true">
      <path
         inkscape:connector-curvature="0"
         id="path3087-8"
         style="fill:#000000;fill-opacity:1;fill-rule:evenodd;stroke:#000000;stroke-width:0.625;stroke-linejoin:round;stroke-opacity:1"
         d="M 8.7185878,4.0337352 -2.2072895,0.01601326 8.7185884,-4.0017078 c -1.7454984,2.3720609 -1.7354408,5.6174519 -6e-7,8.035443 z"
         transform="scale(0.6)" />
    </marker>
    <marker
       inkscape:isstock="true"
       style="overflow:visible"
       id="marker18637-0"
       refX="0"
       refY="0"
       orient="auto"
       inkscape:stockid="Arrow2Mend">
      <path
         inkscape:connector-curvature="0"
         transform="scale(-0.6)"
         d="M 8.7185878,4.0337352 -2.2072895,0.01601326 8.7185884,-4.0017078 c -1.7454984,2.3720609 -1.7354408,5.6174519 -6e-7,8.035443 z"
         style="fill:#000000;fill-opacity:1;fill-rule:evenodd;stroke:#000000;stroke-width:0.625;stroke-linejoin:round;stroke-opacity:1"
         id="path18635-3" />
    </marker>
    <marker
       inkscape:stockid="Arrow2Mstart"
       orient="auto"
       refY="0"
       refX="0"
       id="Arrow2Mstart-8-4"
       style="overflow:visible"
       inkscape:isstock="true">
      <path
         inkscape:connector-curvature="0"
         id="path3087-8-1"
         style="fill:#000000;fill-opacity:1;fill-rule:evenodd;stroke:#000000;stroke-width:0.625;stroke-linejoin:round;stroke-opacity:1"
         d="M 8.7185878,4.0337352 -2.2072895,0.01601326 8.7185884,-4.0017078 c -1.7454984,2.3720609 -1.7354408,5.6174519 -6e-7,8.035443 z"
         transform="scale(0.6)" />
    </marker>
    <marker
       inkscape:isstock="true"
       style="overflow:visible"
       id="marker18637-0-1"
       refX="0"
       refY="0"
       orient="auto"
       inkscape:stockid="Arrow2Mend">
      <path
         inkscape:connector-curvature="0"
         transform="scale(-0.6)"
         d="M 8.7185878,4.0337352 -2.2072895,0.01601326 8.7185884,-4.0017078 c -1.7454984,2.3720609 -1.7354408,5.6174519 -6e-7,8.035443 z"
         style="fill:#000000;fill-opacity:1;fill-rule:evenodd;stroke:#000000;stroke-width:0.625;stroke-linejoin:round;stroke-opacity:1"
         id="path18635-3-6" />
    </marker>
    <pattern
       patternUnits="userSpaceOnUse"
       width="129.67787"
       height="111.9723"
       patternTransform="matrix(0.26458333,0,0,0.26458333,101.28381,-11.123644)"
       id="pattern7289">
      <rect
         y="0.94488192"
         x="0.94488192"
         height="110.08254"
         width="127.78811"
         id="rect5747"
         style="fill:url(#pattern7292);fill-opacity:1;fill-rule:nonzero;stroke:#fc7500;stroke-width:1.88976383;stroke-linecap:round;stroke-linejoin:round;stroke-miterlimit:4;stroke-dasharray:none;stroke-dashoffset:0;stroke-opacity:1;paint-order:normal" />
    </pattern>
  </defs>
  <sodipodi:namedview
     id="base"
     pagecolor="#ffffff"
     bordercolor="#666666"
     borderopacity="1.0"
     inkscape:pageopacity="0.0"
     inkscape:pageshadow="2"
     inkscape:zoom="2.5461681"
     inkscape:cx="56.754848"
     inkscape:cy="106.46499"
     inkscape:document-units="mm"
     inkscape:current-layer="layer2"
     showgrid="false"
     inkscape:object-paths="true"
     inkscape:snap-intersection-paths="true"
     inkscape:snap-smooth-nodes="true"
     inkscape:snap-midpoints="true"
     showguides="false"
     inkscape:guide-bbox="true"
     inkscape:snap-perpendicular="true"
     inkscape:snap-tangential="true"
     inkscape:window-width="1920"
     inkscape:window-height="1046"
     inkscape:window-x="-11"
     inkscape:window-y="-11"
     inkscape:window-maximized="1"
     inkscape:snap-object-midpoints="false"
     inkscape:snap-center="true"
     inkscape:snap-nodes="true">
    <sodipodi:guide
       inkscape:locked="false"
       id="guide11484"
       orientation="-0.99998397,-0.0056625007"
       position="-37.369344,16.055196" />
    <sodipodi:guide
       inkscape:locked="false"
       id="guide13702"
       orientation="0,1"
       position="46.497379,33.761744" />
    <sodipodi:guide
       inkscape:locked="false"
       id="guide18263"
       orientation="1,0"
       position="46.497379,33.761744" />
    <sodipodi:guide
       inkscape:locked="false"
       id="guide18265"
       orientation="0,1"
       position="114.83739,-9.742527" />
    <sodipodi:guide
       inkscape:locked="false"
       id="guide18267"
       orientation="-1,0"
       position="114.8374,-9.742527" />
    <sodipodi:guide
       position="137.36249,12.009555"
       orientation="-1,0"
       id="guide22059"
       inkscape:locked="false" />
    <sodipodi:guide
       position="0.68942916,12.009555"
       orientation="1,0"
       id="guide22205"
       inkscape:locked="false" />
    <sodipodi:guide
       position="80.667675,12.009603"
       orientation="1,0"
       id="guide22207"
       inkscape:locked="false" />
    <sodipodi:guide
       position="149.00424,12.009555"
       orientation="1,0"
       id="guide22209"
       inkscape:locked="false" />
  </sodipodi:namedview>
  <metadata
     id="metadata5">
    <rdf:RDF>
      <cc:Work
         rdf:about="">
        <dc:format>image/svg+xml</dc:format>
        <dc:type
           rdf:resource="http://purl.org/dc/dcmitype/StillImage" />
        <dc:title />
      </cc:Work>
    </rdf:RDF>
  </metadata>
  <g
     inkscape:groupmode="layer"
     id="layer5"
     inkscape:label="Grid"
     style="display:inline"
     transform="translate(4.8499495,6.9831991)"
     sodipodi:insensitive="true">
    <g
       id="g9609"
       inkscape:label="Grid_Polar:X1:Y1"
       transform="matrix(2.2826012,0,0,2.2826012,-4.5969265,-6.9436991)"
       style="display:inline;stroke:#d2d2d2;stroke-width:0.03460964;stroke-miterlimit:4;stroke-dasharray:none;stroke-opacity:1">
      <g
         id="g9583"
         inkscape:label="MajorXGridlines"
         style="stroke:#d2d2d2;stroke-width:0.03460964;stroke-miterlimit:4;stroke-dasharray:none;stroke-opacity:1" />
      <g
         id="g9585"
         inkscape:label="MajorYGridlines"
         style="stroke:#d2d2d2;stroke-width:0.03460964;stroke-miterlimit:4;stroke-dasharray:none;stroke-opacity:1" />
      <g
         id="g9595"
         inkscape:label="SubMinorXGridlines"
         style="stroke:#d2d2d2;stroke-width:0.03460964;stroke-miterlimit:4;stroke-dasharray:none;stroke-opacity:1">
        <path
           id="path9587"
           inkscape:label="SubminorXDiv0:0:1"
           style="fill:none;stroke:#d2d2d2;stroke-width:0.03460964;stroke-miterlimit:4;stroke-dasharray:none;stroke-opacity:1"
           d="M 5.2916667,0 V 26.458333"
           inkscape:connector-curvature="0" />
        <path
           id="path9589"
           inkscape:label="SubminorXDiv0:0:2"
           style="fill:none;stroke:#d2d2d2;stroke-width:0.03460964;stroke-miterlimit:4;stroke-dasharray:none;stroke-opacity:1"
           d="M 10.583333,0 V 26.458333"
           inkscape:connector-curvature="0" />
        <path
           id="path9591"
           inkscape:label="SubminorXDiv0:0:3"
           style="fill:none;stroke:#d2d2d2;stroke-width:0.03460964;stroke-miterlimit:4;stroke-dasharray:none;stroke-opacity:1"
           d="M 15.875,0 V 26.458333"
           inkscape:connector-curvature="0" />
        <path
           id="path9593"
           inkscape:label="SubminorXDiv0:0:4"
           style="fill:none;stroke:#d2d2d2;stroke-width:0.03460964;stroke-miterlimit:4;stroke-dasharray:none;stroke-opacity:1"
           d="M 21.166667,0 V 26.458333"
           inkscape:connector-curvature="0" />
      </g>
      <g
         id="g9605"
         inkscape:label="SubMinorYGridlines"
         style="stroke:#d2d2d2;stroke-width:0.03460964;stroke-miterlimit:4;stroke-dasharray:none;stroke-opacity:1">
        <path
           id="path9597"
           inkscape:label="SubminorXDiv0:0:1"
           style="fill:none;stroke:#d2d2d2;stroke-width:0.03460964;stroke-miterlimit:4;stroke-dasharray:none;stroke-opacity:1"
           d="M 0,5.2916667 H 26.458333"
           inkscape:connector-curvature="0" />
        <path
           id="path9599"
           inkscape:label="SubminorXDiv0:0:2"
           style="fill:none;stroke:#d2d2d2;stroke-width:0.03460964;stroke-miterlimit:4;stroke-dasharray:none;stroke-opacity:1"
           d="M 0,10.583333 H 26.458333"
           inkscape:connector-curvature="0" />
        <path
           id="path9601"
           inkscape:label="SubminorXDiv0:0:3"
           style="fill:none;stroke:#d2d2d2;stroke-width:0.03460964;stroke-miterlimit:4;stroke-dasharray:none;stroke-opacity:1"
           d="M 0,15.875 H 26.458333"
           inkscape:connector-curvature="0" />
        <path
           id="path9603"
           inkscape:label="SubminorXDiv0:0:4"
           style="fill:none;stroke:#d2d2d2;stroke-width:0.03460964;stroke-miterlimit:4;stroke-dasharray:none;stroke-opacity:1"
           d="M 0,21.166667 H 26.458333"
           inkscape:connector-curvature="0" />
      </g>
      <rect
         id="rect9607"
         inkscape:label="Border"
         y="0"
         x="0"
         width="26.458334"
         style="fill:none;stroke:#d2d2d2;stroke-width:0.03460964;stroke-miterlimit:4;stroke-dasharray:none;stroke-opacity:1"
         height="26.458334" />
    </g>
  </g>
  <g
     inkscape:label="Drawing"
     inkscape:groupmode="layer"
     id="layer1"
     transform="translate(-33.645406,16.845053)"
     style="display:inline">
    <path
       style="display:inline;fill:none;stroke:#000000;stroke-width:0.26458332px;stroke-linecap:butt;stroke-linejoin:miter;stroke-opacity:1;marker-end:url(#marker19414)"
       d="M 33.898429,31.618241 H 93.87287"
       id="path17584"
       inkscape:connector-curvature="0"
       sodipodi:nodetypes="cc" />
    <path
       style="display:inline;fill:none;stroke:#000000;stroke-width:0.26458329px;stroke-linecap:butt;stroke-linejoin:miter;stroke-opacity:1;marker-end:url(#Arrow2Lend)"
       d="M 45.97721,43.588271 V -16.396325"
       id="path17628"
       inkscape:connector-curvature="0"
       sodipodi:nodetypes="cc" />
    <path
       transform="translate(27.309735,14.074071)"
       style="display:inline;fill:none;stroke:#000000;stroke-width:0.26458332px;stroke-linecap:butt;stroke-linejoin:miter;stroke-opacity:1"
       d="m 16.802942,5.3696604 h 3.729035"
       id="path10537"
       inkscape:connector-curvature="0" />
    <path
       style="fill:none;stroke:#006fe1;stroke-width:0.5;stroke-linecap:round;stroke-linejoin:miter;stroke-miterlimit:4;stroke-dasharray:none;stroke-opacity:1"
       d="M 33.898427,27.111124 94.045595,-10.556795"
       id="path5623"
       inkscape:connector-curvature="0"
       sodipodi:nodetypes="cc" />
  </g>
  <g
     inkscape:groupmode="layer"
     id="layer4"
     inkscape:label="Reference"
     style="display:none"
     transform="translate(-17.043356,28.478201)">
    <path
       transform="matrix(0.00617459,0.99998093,0.99999967,-8.0372215e-4,-16.60205,-11.633148)"
       id="path839-6-2"
       style="fill:none;fill-opacity:1;stroke:#000000;stroke-width:0.30000216;stroke-linecap:round;stroke-linejoin:round;stroke-miterlimit:4;stroke-dasharray:none;stroke-dashoffset:0;stroke-opacity:1;marker-end:url(#Arrow2Mend-7);paint-order:normal"
       sodipodi:type="arc"
       sodipodi:cx="34.510071"
       sodipodi:cy="27.08654"
       sodipodi:rx="8.6078758"
       sodipodi:ry="1.9635584"
       sodipodi:start="3.8532276"
       sodipodi:end="1.4930569"
       d="m 27.991368,25.804194 a 8.6078758,1.9635584 0 0 1 10.25128,-0.487005 8.6078758,1.9635584 0 0 1 4.727805,2.131285 8.6078758,1.9635584 0 0 1 -7.791885,1.595694"
       sodipodi:open="true"
       inkscape:transform-center-x="8.7109518"
       inkscape:transform-center-y="-0.37811827" />
  </g>
  <g
     inkscape:groupmode="layer"
     id="layer2"
     inkscape:label="Text"
     style="display:none"
     transform="translate(-6.3356715,30.919123)">
    <text
       xml:space="preserve"
       style="font-style:normal;font-weight:normal;font-size:4.23333311px;line-height:1.25;font-family:sans-serif;letter-spacing:0px;word-spacing:0px;display:inline;fill:#000000;fill-opacity:1;stroke:none;stroke-width:0.26458332"
       x="69.673065"
       y="20.453831"
       id="text908-9-1-7"><tspan
         sodipodi:role="line"
         id="tspan906-0-2-0"
         x="69.673065"
         y="20.453831"
         style="font-size:4.23333311px;stroke-width:0.26458332">$x_1$</tspan></text>
    <text
       xml:space="preserve"
       style="font-style:normal;font-weight:normal;font-size:4.23333311px;line-height:1.25;font-family:sans-serif;letter-spacing:0px;word-spacing:0px;display:inline;fill:#000000;fill-opacity:1;stroke:none;stroke-width:0.26458332"
       x="9.6073475"
       y="28.960524"
       id="text908-9-1-7-3"><tspan
         sodipodi:role="line"
         id="tspan906-0-2-0-3"
         x="9.6073475"
         y="28.960524"
         style="font-size:4.23333311px;stroke-width:0.26458332">$0$</tspan></text>
    <text
       xml:space="preserve"
       style="font-style:normal;font-weight:normal;font-size:4.23333311px;line-height:1.25;font-family:sans-serif;letter-spacing:0px;word-spacing:0px;display:inline;fill:#000000;fill-opacity:1;stroke:none;stroke-width:0.26458332"
       x="1.1512628"
       y="-24.716539"
       id="text908-9-1-7-5"><tspan
         sodipodi:role="line"
         id="tspan906-0-2-0-6"
         x="1.1512628"
         y="-24.716539"
         style="font-size:4.23333311px;stroke-width:0.26458332">$x_2$</tspan></text>
    <text
       xml:space="preserve"
       style="font-style:normal;font-weight:normal;font-size:4.23333311px;line-height:1.25;font-family:sans-serif;letter-spacing:0px;word-spacing:0px;display:inline;fill:#000000;fill-opacity:1;stroke:none;stroke-width:0.26458332"
       x="22.606043"
       y="-32.639065"
       id="text908-9-1-7-5-4"><tspan
         sodipodi:role="line"
         id="tspan906-0-2-0-6-3"
         x="22.606043"
         y="-32.639065"
         style="font-size:4.23333311px;stroke-width:0.26458332">$-m x_1 + x_2 = b$</tspan></text>
    <text
       xml:space="preserve"
       style="font-style:normal;font-weight:normal;font-size:4.23333311px;line-height:1.25;font-family:sans-serif;letter-spacing:0px;word-spacing:0px;display:inline;fill:#000000;fill-opacity:1;stroke:none;stroke-width:0.26458332"
       x="-2.0827024"
       y="1.7854213"
       id="text908-9-1-7-8"><tspan
         sodipodi:role="line"
         id="tspan906-0-2-0-5"
         x="-2.0827024"
         y="1.7854213"
         style="font-size:4.23333311px;stroke-width:0.26458332">$b$</tspan></text>
  </g>
  <g
     rendltx:math="False"
     rendltx:newline="False"
     rendltx:fontsize="12.0"
     rendltx:depth="0.0"
     rendltx:scale="1.0"
     rendltx:packages="amsmath,amssymb"
     rendltx:preamble=""
     id="ltx-render-layer"
     inkscape:groupmode="layer"
     inkscape:label="Rendered Latex"
     transform="translate(-6.3356715,30.919123)"
     style="display:inline">
    <g
       id="lx-text908-9-1-7"
       transform="matrix(0.352778,0,0,0.352778,63.031228,21.520493)">
      <defs
         id="defs2930">
        <g
           id="g2928">
          <symbol
             id="lx-text908-9-1-7-glyph0-0"
             overflow="visible">
            <path
               id="path2916"
               d=""
               style="stroke:none;" />
          </symbol>
          <symbol
             id="lx-text908-9-1-7-glyph0-1"
             overflow="visible">
            <path
               id="path2919"
               d="M 5.671875 -4.875 C 5.28125 -4.8125 5.140625 -4.515625 5.140625 -4.296875 C 5.140625 -4 5.359375 -3.90625 5.53125 -3.90625 C 5.890625 -3.90625 6.140625 -4.21875 6.140625 -4.546875 C 6.140625 -5.046875 5.5625 -5.265625 5.0625 -5.265625 C 4.34375 -5.265625 3.9375 -4.546875 3.828125 -4.328125 C 3.546875 -5.21875 2.8125 -5.265625 2.59375 -5.265625 C 1.375 -5.265625 0.734375 -3.703125 0.734375 -3.4375 C 0.734375 -3.390625 0.78125 -3.328125 0.859375 -3.328125 C 0.953125 -3.328125 0.984375 -3.40625 1 -3.453125 C 1.40625 -4.78125 2.21875 -5.03125 2.5625 -5.03125 C 3.09375 -5.03125 3.203125 -4.53125 3.203125 -4.25 C 3.203125 -3.984375 3.125 -3.703125 2.984375 -3.125 L 2.578125 -1.5 C 2.40625 -0.78125 2.0625 -0.125 1.421875 -0.125 C 1.359375 -0.125 1.0625 -0.125 0.8125 -0.28125 C 1.25 -0.359375 1.34375 -0.71875 1.34375 -0.859375 C 1.34375 -1.09375 1.15625 -1.25 0.9375 -1.25 C 0.640625 -1.25 0.328125 -0.984375 0.328125 -0.609375 C 0.328125 -0.109375 0.890625 0.125 1.40625 0.125 C 1.984375 0.125 2.390625 -0.328125 2.640625 -0.828125 C 2.828125 -0.125 3.4375 0.125 3.875 0.125 C 5.09375 0.125 5.734375 -1.453125 5.734375 -1.703125 C 5.734375 -1.765625 5.6875 -1.8125 5.625 -1.8125 C 5.515625 -1.8125 5.5 -1.75 5.46875 -1.65625 C 5.140625 -0.609375 4.453125 -0.125 3.90625 -0.125 C 3.484375 -0.125 3.265625 -0.4375 3.265625 -0.921875 C 3.265625 -1.1875 3.3125 -1.375 3.5 -2.15625 L 3.921875 -3.796875 C 4.09375 -4.5 4.5 -5.03125 5.0625 -5.03125 C 5.078125 -5.03125 5.421875 -5.03125 5.671875 -4.875 Z M 5.671875 -4.875 "
               style="stroke:none;" />
          </symbol>
          <symbol
             id="lx-text908-9-1-7-glyph1-0"
             overflow="visible">
            <path
               id="path2922"
               d=""
               style="stroke:none;" />
          </symbol>
          <symbol
             id="lx-text908-9-1-7-glyph1-1"
             overflow="visible">
            <path
               id="path2925"
               d="M 2.5 -5.078125 C 2.5 -5.296875 2.484375 -5.296875 2.265625 -5.296875 C 1.9375 -4.984375 1.515625 -4.796875 0.765625 -4.796875 L 0.765625 -4.53125 C 0.984375 -4.53125 1.40625 -4.53125 1.875 -4.734375 L 1.875 -0.65625 C 1.875 -0.359375 1.84375 -0.265625 1.09375 -0.265625 L 0.8125 -0.265625 L 0.8125 0 C 1.140625 -0.03125 1.828125 -0.03125 2.1875 -0.03125 C 2.546875 -0.03125 3.234375 -0.03125 3.5625 0 L 3.5625 -0.265625 L 3.28125 -0.265625 C 2.53125 -0.265625 2.5 -0.359375 2.5 -0.65625 Z M 2.5 -5.078125 "
               style="stroke:none;" />
          </symbol>
        </g>
      </defs>
      <g
         id="lx-text908-9-1-7-surface1">
        <g
           id="g2934"
           style="fill:rgb(0%,0%,0%);fill-opacity:1;">
          <use
             id="use2932"
             y="0.0"
             x="0.0"
             xlink:href="#lx-text908-9-1-7-glyph0-1" />
        </g>
        <g
           id="g2938"
           style="fill:rgb(0%,0%,0%);fill-opacity:1;">
          <use
             id="use2936"
             y="1.793"
             x="6.652"
             xlink:href="#lx-text908-9-1-7-glyph1-1" />
        </g>
      </g>
    </g>
    <g
       id="lx-text908-9-1-7-3"
       transform="matrix(0.352778,0,0,0.352778,15.461466,22.498002)">
      <defs
         id="defs2950">
        <g
           id="g2948">
          <symbol
             id="lx-text908-9-1-7-3-glyph0-0"
             overflow="visible">
            <path
               id="path2942"
               d=""
               style="stroke:none;" />
          </symbol>
          <symbol
             id="lx-text908-9-1-7-3-glyph0-1"
             overflow="visible">
            <path
               id="path2945"
               d="M 5.359375 -3.828125 C 5.359375 -4.8125 5.296875 -5.78125 4.859375 -6.6875 C 4.375 -7.6875 3.515625 -7.953125 2.921875 -7.953125 C 2.234375 -7.953125 1.390625 -7.609375 0.9375 -6.609375 C 0.609375 -5.859375 0.484375 -5.109375 0.484375 -3.828125 C 0.484375 -2.671875 0.578125 -1.796875 1 -0.9375 C 1.46875 -0.03125 2.296875 0.25 2.921875 0.25 C 3.953125 0.25 4.546875 -0.375 4.90625 -1.0625 C 5.328125 -1.953125 5.359375 -3.125 5.359375 -3.828125 Z M 2.921875 0.015625 C 2.53125 0.015625 1.75 -0.203125 1.53125 -1.5 C 1.40625 -2.21875 1.40625 -3.125 1.40625 -3.96875 C 1.40625 -4.953125 1.40625 -5.828125 1.59375 -6.53125 C 1.796875 -7.34375 2.40625 -7.703125 2.921875 -7.703125 C 3.375 -7.703125 4.0625 -7.4375 4.296875 -6.40625 C 4.453125 -5.71875 4.453125 -4.78125 4.453125 -3.96875 C 4.453125 -3.171875 4.453125 -2.265625 4.3125 -1.53125 C 4.09375 -0.21875 3.328125 0.015625 2.921875 0.015625 Z M 2.921875 0.015625 "
               style="stroke:none;" />
          </symbol>
        </g>
      </defs>
      <g
         id="lx-text908-9-1-7-3-surface1">
        <g
           id="g2954"
           style="fill:rgb(0%,0%,0%);fill-opacity:1;">
          <use
             id="use2952"
             y="0.0"
             x="0.0"
             xlink:href="#lx-text908-9-1-7-3-glyph0-1" />
        </g>
      </g>
    </g>
    <g
       id="lx-text908-9-1-7-5"
       transform="matrix(0.352778,0,0,0.352778,12.582268,-28.036879)">
      <defs
         id="defs2972">
        <g
           id="g2970">
          <symbol
             id="lx-text908-9-1-7-5-glyph0-0"
             overflow="visible">
            <path
               id="path2958"
               d=""
               style="stroke:none;" />
          </symbol>
          <symbol
             id="lx-text908-9-1-7-5-glyph0-1"
             overflow="visible">
            <path
               id="path2961"
               d="M 5.671875 -4.875 C 5.28125 -4.8125 5.140625 -4.515625 5.140625 -4.296875 C 5.140625 -4 5.359375 -3.90625 5.53125 -3.90625 C 5.890625 -3.90625 6.140625 -4.21875 6.140625 -4.546875 C 6.140625 -5.046875 5.5625 -5.265625 5.0625 -5.265625 C 4.34375 -5.265625 3.9375 -4.546875 3.828125 -4.328125 C 3.546875 -5.21875 2.8125 -5.265625 2.59375 -5.265625 C 1.375 -5.265625 0.734375 -3.703125 0.734375 -3.4375 C 0.734375 -3.390625 0.78125 -3.328125 0.859375 -3.328125 C 0.953125 -3.328125 0.984375 -3.40625 1 -3.453125 C 1.40625 -4.78125 2.21875 -5.03125 2.5625 -5.03125 C 3.09375 -5.03125 3.203125 -4.53125 3.203125 -4.25 C 3.203125 -3.984375 3.125 -3.703125 2.984375 -3.125 L 2.578125 -1.5 C 2.40625 -0.78125 2.0625 -0.125 1.421875 -0.125 C 1.359375 -0.125 1.0625 -0.125 0.8125 -0.28125 C 1.25 -0.359375 1.34375 -0.71875 1.34375 -0.859375 C 1.34375 -1.09375 1.15625 -1.25 0.9375 -1.25 C 0.640625 -1.25 0.328125 -0.984375 0.328125 -0.609375 C 0.328125 -0.109375 0.890625 0.125 1.40625 0.125 C 1.984375 0.125 2.390625 -0.328125 2.640625 -0.828125 C 2.828125 -0.125 3.4375 0.125 3.875 0.125 C 5.09375 0.125 5.734375 -1.453125 5.734375 -1.703125 C 5.734375 -1.765625 5.6875 -1.8125 5.625 -1.8125 C 5.515625 -1.8125 5.5 -1.75 5.46875 -1.65625 C 5.140625 -0.609375 4.453125 -0.125 3.90625 -0.125 C 3.484375 -0.125 3.265625 -0.4375 3.265625 -0.921875 C 3.265625 -1.1875 3.3125 -1.375 3.5 -2.15625 L 3.921875 -3.796875 C 4.09375 -4.5 4.5 -5.03125 5.0625 -5.03125 C 5.078125 -5.03125 5.421875 -5.03125 5.671875 -4.875 Z M 5.671875 -4.875 "
               style="stroke:none;" />
          </symbol>
          <symbol
             id="lx-text908-9-1-7-5-glyph1-0"
             overflow="visible">
            <path
               id="path2964"
               d=""
               style="stroke:none;" />
          </symbol>
          <symbol
             id="lx-text908-9-1-7-5-glyph1-1"
             overflow="visible">
            <path
               id="path2967"
               d="M 2.25 -1.625 C 2.375 -1.75 2.703125 -2.015625 2.84375 -2.125 C 3.328125 -2.578125 3.796875 -3.015625 3.796875 -3.734375 C 3.796875 -4.6875 3 -5.296875 2.015625 -5.296875 C 1.046875 -5.296875 0.421875 -4.578125 0.421875 -3.859375 C 0.421875 -3.46875 0.734375 -3.421875 0.84375 -3.421875 C 1.015625 -3.421875 1.265625 -3.53125 1.265625 -3.84375 C 1.265625 -4.25 0.859375 -4.25 0.765625 -4.25 C 1 -4.84375 1.53125 -5.03125 1.921875 -5.03125 C 2.65625 -5.03125 3.046875 -4.40625 3.046875 -3.734375 C 3.046875 -2.90625 2.46875 -2.296875 1.515625 -1.34375 L 0.515625 -0.296875 C 0.421875 -0.21875 0.421875 -0.203125 0.421875 0 L 3.5625 0 L 3.796875 -1.421875 L 3.546875 -1.421875 C 3.53125 -1.265625 3.46875 -0.875 3.375 -0.71875 C 3.328125 -0.65625 2.71875 -0.65625 2.59375 -0.65625 L 1.171875 -0.65625 Z M 2.25 -1.625 "
               style="stroke:none;" />
          </symbol>
        </g>
      </defs>
      <g
         id="lx-text908-9-1-7-5-surface1">
        <g
           id="g2976"
           style="fill:rgb(0%,0%,0%);fill-opacity:1;">
          <use
             id="use2974"
             y="0.0"
             x="0.0"
             xlink:href="#lx-text908-9-1-7-5-glyph0-1" />
        </g>
        <g
           id="g2980"
           style="fill:rgb(0%,0%,0%);fill-opacity:1;">
          <use
             id="use2978"
             y="1.793"
             x="6.652"
             xlink:href="#lx-text908-9-1-7-5-glyph1-1" />
        </g>
      </g>
    </g>
    <g
       id="lx-text908-9-1-7-5-4"
       transform="matrix(0.30268978,-0.18119387,0.18119387,0.30268978,29.513401,-3.7039915)">
      <defs
         id="defs3022">
        <g
           id="g3020">
          <symbol
             id="lx-text908-9-1-7-5-4-glyph0-0"
             overflow="visible">
            <path
               id="path2984"
               d=""
               style="stroke:none;" />
          </symbol>
          <symbol
             id="lx-text908-9-1-7-5-4-glyph0-1"
             overflow="visible">
            <path
               id="path2987"
               d="M 7.875 -2.75 C 8.078125 -2.75 8.296875 -2.75 8.296875 -2.984375 C 8.296875 -3.234375 8.078125 -3.234375 7.875 -3.234375 L 1.40625 -3.234375 C 1.203125 -3.234375 0.984375 -3.234375 0.984375 -2.984375 C 0.984375 -2.75 1.203125 -2.75 1.40625 -2.75 Z M 7.875 -2.75 "
               style="stroke:none;" />
          </symbol>
          <symbol
             id="lx-text908-9-1-7-5-4-glyph1-0"
             overflow="visible">
            <path
               id="path2990"
               d=""
               style="stroke:none;" />
          </symbol>
          <symbol
             id="lx-text908-9-1-7-5-4-glyph1-1"
             overflow="visible">
            <path
               id="path2993"
               d="M 2.46875 -3.5 C 2.484375 -3.578125 2.78125 -4.171875 3.234375 -4.546875 C 3.53125 -4.84375 3.9375 -5.03125 4.40625 -5.03125 C 4.890625 -5.03125 5.0625 -4.671875 5.0625 -4.203125 C 5.0625 -4.125 5.0625 -3.890625 4.90625 -3.328125 L 4.609375 -2.09375 C 4.515625 -1.734375 4.296875 -0.84375 4.265625 -0.71875 C 4.21875 -0.53125 4.140625 -0.234375 4.140625 -0.171875 C 4.140625 -0.015625 4.28125 0.125 4.453125 0.125 C 4.8125 0.125 4.875 -0.15625 4.984375 -0.578125 L 5.703125 -3.4375 C 5.71875 -3.53125 6.34375 -5.03125 7.65625 -5.03125 C 8.140625 -5.03125 8.3125 -4.671875 8.3125 -4.203125 C 8.3125 -3.53125 7.84375 -2.21875 7.578125 -1.5 C 7.46875 -1.21875 7.40625 -1.0625 7.40625 -0.84375 C 7.40625 -0.3125 7.78125 0.125 8.359375 0.125 C 9.46875 0.125 9.890625 -1.640625 9.890625 -1.703125 C 9.890625 -1.765625 9.84375 -1.8125 9.765625 -1.8125 C 9.65625 -1.8125 9.640625 -1.78125 9.59375 -1.578125 C 9.3125 -0.625 8.875 -0.125 8.390625 -0.125 C 8.265625 -0.125 8.078125 -0.125 8.078125 -0.515625 C 8.078125 -0.828125 8.21875 -1.203125 8.265625 -1.34375 C 8.484375 -1.90625 9.03125 -3.328125 9.03125 -4.015625 C 9.03125 -4.734375 8.609375 -5.265625 7.703125 -5.265625 C 6.890625 -5.265625 6.25 -4.8125 5.765625 -4.109375 C 5.734375 -4.75 5.34375 -5.265625 4.453125 -5.265625 C 3.375 -5.265625 2.828125 -4.515625 2.609375 -4.21875 C 2.5625 -4.90625 2.078125 -5.265625 1.546875 -5.265625 C 1.203125 -5.265625 0.9375 -5.109375 0.703125 -4.65625 C 0.484375 -4.21875 0.328125 -3.484375 0.328125 -3.4375 C 0.328125 -3.390625 0.375 -3.328125 0.453125 -3.328125 C 0.546875 -3.328125 0.5625 -3.34375 0.640625 -3.625 C 0.8125 -4.328125 1.046875 -5.03125 1.515625 -5.03125 C 1.796875 -5.03125 1.890625 -4.84375 1.890625 -4.484375 C 1.890625 -4.21875 1.765625 -3.75 1.6875 -3.375 L 1.34375 -2.09375 C 1.296875 -1.859375 1.171875 -1.328125 1.109375 -1.109375 C 1.03125 -0.796875 0.890625 -0.234375 0.890625 -0.171875 C 0.890625 -0.015625 1.03125 0.125 1.203125 0.125 C 1.34375 0.125 1.515625 0.046875 1.609375 -0.125 C 1.640625 -0.1875 1.75 -0.609375 1.8125 -0.84375 L 2.0625 -1.921875 Z M 2.46875 -3.5 "
               style="stroke:none;" />
          </symbol>
          <symbol
             id="lx-text908-9-1-7-5-4-glyph1-2"
             overflow="visible">
            <path
               id="path2996"
               d="M 5.671875 -4.875 C 5.28125 -4.8125 5.140625 -4.515625 5.140625 -4.296875 C 5.140625 -4 5.359375 -3.90625 5.53125 -3.90625 C 5.890625 -3.90625 6.140625 -4.21875 6.140625 -4.546875 C 6.140625 -5.046875 5.5625 -5.265625 5.0625 -5.265625 C 4.34375 -5.265625 3.9375 -4.546875 3.828125 -4.328125 C 3.546875 -5.21875 2.8125 -5.265625 2.59375 -5.265625 C 1.375 -5.265625 0.734375 -3.703125 0.734375 -3.4375 C 0.734375 -3.390625 0.78125 -3.328125 0.859375 -3.328125 C 0.953125 -3.328125 0.984375 -3.40625 1 -3.453125 C 1.40625 -4.78125 2.21875 -5.03125 2.5625 -5.03125 C 3.09375 -5.03125 3.203125 -4.53125 3.203125 -4.25 C 3.203125 -3.984375 3.125 -3.703125 2.984375 -3.125 L 2.578125 -1.5 C 2.40625 -0.78125 2.0625 -0.125 1.421875 -0.125 C 1.359375 -0.125 1.0625 -0.125 0.8125 -0.28125 C 1.25 -0.359375 1.34375 -0.71875 1.34375 -0.859375 C 1.34375 -1.09375 1.15625 -1.25 0.9375 -1.25 C 0.640625 -1.25 0.328125 -0.984375 0.328125 -0.609375 C 0.328125 -0.109375 0.890625 0.125 1.40625 0.125 C 1.984375 0.125 2.390625 -0.328125 2.640625 -0.828125 C 2.828125 -0.125 3.4375 0.125 3.875 0.125 C 5.09375 0.125 5.734375 -1.453125 5.734375 -1.703125 C 5.734375 -1.765625 5.6875 -1.8125 5.625 -1.8125 C 5.515625 -1.8125 5.5 -1.75 5.46875 -1.65625 C 5.140625 -0.609375 4.453125 -0.125 3.90625 -0.125 C 3.484375 -0.125 3.265625 -0.4375 3.265625 -0.921875 C 3.265625 -1.1875 3.3125 -1.375 3.5 -2.15625 L 3.921875 -3.796875 C 4.09375 -4.5 4.5 -5.03125 5.0625 -5.03125 C 5.078125 -5.03125 5.421875 -5.03125 5.671875 -4.875 Z M 5.671875 -4.875 "
               style="stroke:none;" />
          </symbol>
          <symbol
             id="lx-text908-9-1-7-5-4-glyph1-3"
             overflow="visible">
            <path
               id="path2999"
               d="M 2.765625 -8 C 2.765625 -8.046875 2.796875 -8.109375 2.796875 -8.171875 C 2.796875 -8.296875 2.671875 -8.296875 2.65625 -8.296875 C 2.640625 -8.296875 2.21875 -8.265625 2 -8.234375 C 1.796875 -8.21875 1.609375 -8.203125 1.40625 -8.1875 C 1.109375 -8.15625 1.03125 -8.15625 1.03125 -7.9375 C 1.03125 -7.8125 1.140625 -7.8125 1.265625 -7.8125 C 1.875 -7.8125 1.875 -7.703125 1.875 -7.59375 C 1.875 -7.5 1.78125 -7.15625 1.734375 -6.9375 L 1.453125 -5.796875 C 1.328125 -5.3125 0.640625 -2.609375 0.59375 -2.390625 C 0.53125 -2.09375 0.53125 -1.890625 0.53125 -1.734375 C 0.53125 -0.515625 1.21875 0.125 2 0.125 C 3.375 0.125 4.8125 -1.65625 4.8125 -3.390625 C 4.8125 -4.5 4.203125 -5.265625 3.296875 -5.265625 C 2.671875 -5.265625 2.109375 -4.75 1.890625 -4.515625 Z M 2.015625 -0.125 C 1.625 -0.125 1.203125 -0.40625 1.203125 -1.34375 C 1.203125 -1.734375 1.25 -1.953125 1.453125 -2.796875 C 1.5 -2.953125 1.6875 -3.71875 1.734375 -3.875 C 1.75 -3.96875 2.46875 -5.03125 3.28125 -5.03125 C 3.796875 -5.03125 4.046875 -4.5 4.046875 -3.890625 C 4.046875 -3.3125 3.703125 -1.953125 3.40625 -1.34375 C 3.109375 -0.6875 2.5625 -0.125 2.015625 -0.125 Z M 2.015625 -0.125 "
               style="stroke:none;" />
          </symbol>
          <symbol
             id="lx-text908-9-1-7-5-4-glyph2-0"
             overflow="visible">
            <path
               id="path3002"
               d=""
               style="stroke:none;" />
          </symbol>
          <symbol
             id="lx-text908-9-1-7-5-4-glyph2-1"
             overflow="visible">
            <path
               id="path3005"
               d="M 2.5 -5.078125 C 2.5 -5.296875 2.484375 -5.296875 2.265625 -5.296875 C 1.9375 -4.984375 1.515625 -4.796875 0.765625 -4.796875 L 0.765625 -4.53125 C 0.984375 -4.53125 1.40625 -4.53125 1.875 -4.734375 L 1.875 -0.65625 C 1.875 -0.359375 1.84375 -0.265625 1.09375 -0.265625 L 0.8125 -0.265625 L 0.8125 0 C 1.140625 -0.03125 1.828125 -0.03125 2.1875 -0.03125 C 2.546875 -0.03125 3.234375 -0.03125 3.5625 0 L 3.5625 -0.265625 L 3.28125 -0.265625 C 2.53125 -0.265625 2.5 -0.359375 2.5 -0.65625 Z M 2.5 -5.078125 "
               style="stroke:none;" />
          </symbol>
          <symbol
             id="lx-text908-9-1-7-5-4-glyph2-2"
             overflow="visible">
            <path
               id="path3008"
               d="M 2.25 -1.625 C 2.375 -1.75 2.703125 -2.015625 2.84375 -2.125 C 3.328125 -2.578125 3.796875 -3.015625 3.796875 -3.734375 C 3.796875 -4.6875 3 -5.296875 2.015625 -5.296875 C 1.046875 -5.296875 0.421875 -4.578125 0.421875 -3.859375 C 0.421875 -3.46875 0.734375 -3.421875 0.84375 -3.421875 C 1.015625 -3.421875 1.265625 -3.53125 1.265625 -3.84375 C 1.265625 -4.25 0.859375 -4.25 0.765625 -4.25 C 1 -4.84375 1.53125 -5.03125 1.921875 -5.03125 C 2.65625 -5.03125 3.046875 -4.40625 3.046875 -3.734375 C 3.046875 -2.90625 2.46875 -2.296875 1.515625 -1.34375 L 0.515625 -0.296875 C 0.421875 -0.21875 0.421875 -0.203125 0.421875 0 L 3.5625 0 L 3.796875 -1.421875 L 3.546875 -1.421875 C 3.53125 -1.265625 3.46875 -0.875 3.375 -0.71875 C 3.328125 -0.65625 2.71875 -0.65625 2.59375 -0.65625 L 1.171875 -0.65625 Z M 2.25 -1.625 "
               style="stroke:none;" />
          </symbol>
          <symbol
             id="lx-text908-9-1-7-5-4-glyph3-0"
             overflow="visible">
            <path
               id="path3011"
               d=""
               style="stroke:none;" />
          </symbol>
          <symbol
             id="lx-text908-9-1-7-5-4-glyph3-1"
             overflow="visible">
            <path
               id="path3014"
               d="M 4.765625 -2.765625 L 8.0625 -2.765625 C 8.234375 -2.765625 8.453125 -2.765625 8.453125 -2.96875 C 8.453125 -3.203125 8.25 -3.203125 8.0625 -3.203125 L 4.765625 -3.203125 L 4.765625 -6.5 C 4.765625 -6.671875 4.765625 -6.890625 4.546875 -6.890625 C 4.328125 -6.890625 4.328125 -6.6875 4.328125 -6.5 L 4.328125 -3.203125 L 1.03125 -3.203125 C 0.859375 -3.203125 0.640625 -3.203125 0.640625 -2.984375 C 0.640625 -2.765625 0.84375 -2.765625 1.03125 -2.765625 L 4.328125 -2.765625 L 4.328125 0.53125 C 4.328125 0.703125 4.328125 0.921875 4.546875 0.921875 C 4.765625 0.921875 4.765625 0.71875 4.765625 0.53125 Z M 4.765625 -2.765625 "
               style="stroke:none;" />
          </symbol>
          <symbol
             id="lx-text908-9-1-7-5-4-glyph3-2"
             overflow="visible">
            <path
               id="path3017"
               d="M 8.0625 -3.875 C 8.234375 -3.875 8.453125 -3.875 8.453125 -4.09375 C 8.453125 -4.3125 8.25 -4.3125 8.0625 -4.3125 L 1.03125 -4.3125 C 0.859375 -4.3125 0.640625 -4.3125 0.640625 -4.09375 C 0.640625 -3.875 0.84375 -3.875 1.03125 -3.875 Z M 8.0625 -1.65625 C 8.234375 -1.65625 8.453125 -1.65625 8.453125 -1.859375 C 8.453125 -2.09375 8.25 -2.09375 8.0625 -2.09375 L 1.03125 -2.09375 C 0.859375 -2.09375 0.640625 -2.09375 0.640625 -1.875 C 0.640625 -1.65625 0.84375 -1.65625 1.03125 -1.65625 Z M 8.0625 -1.65625 "
               style="stroke:none;" />
          </symbol>
        </g>
      </defs>
      <g
         id="lx-text908-9-1-7-5-4-surface1">
        <g
           id="g3026"
           style="fill:rgb(0%,0%,0%);fill-opacity:1;">
          <use
             id="use3024"
             y="0.0"
             x="0.0"
             xlink:href="#lx-text908-9-1-7-5-4-glyph0-1" />
        </g>
        <g
           id="g3032"
           style="fill:rgb(0%,0%,0%);fill-opacity:1;">
          <use
             id="use3028"
             y="0.0"
             x="9.299"
             xlink:href="#lx-text908-9-1-7-5-4-glyph1-1" />
          <use
             id="use3030"
             y="0.0"
             x="19.538629"
             xlink:href="#lx-text908-9-1-7-5-4-glyph1-2" />
        </g>
        <g
           id="g3036"
           style="fill:rgb(0%,0%,0%);fill-opacity:1;">
          <use
             id="use3034"
             y="1.793"
             x="26.19"
             xlink:href="#lx-text908-9-1-7-5-4-glyph2-1" />
        </g>
        <g
           id="g3040"
           style="fill:rgb(0%,0%,0%);fill-opacity:1;">
          <use
             id="use3038"
             y="0.0"
             x="33.579"
             xlink:href="#lx-text908-9-1-7-5-4-glyph3-1" />
        </g>
        <g
           id="g3044"
           style="fill:rgb(0%,0%,0%);fill-opacity:1;">
          <use
             id="use3042"
             y="0.0"
             x="45.34"
             xlink:href="#lx-text908-9-1-7-5-4-glyph1-2" />
        </g>
        <g
           id="g3048"
           style="fill:rgb(0%,0%,0%);fill-opacity:1;">
          <use
             id="use3046"
             y="1.793"
             x="51.992"
             xlink:href="#lx-text908-9-1-7-5-4-glyph2-2" />
        </g>
        <g
           id="g3052"
           style="fill:rgb(0%,0%,0%);fill-opacity:1;">
          <use
             id="use3050"
             y="0.0"
             x="60.046"
             xlink:href="#lx-text908-9-1-7-5-4-glyph3-2" />
        </g>
        <g
           id="g3056"
           style="fill:rgb(0%,0%,0%);fill-opacity:1;">
          <use
             id="use3054"
             y="0.0"
             x="72.471"
             xlink:href="#lx-text908-9-1-7-5-4-glyph1-3" />
        </g>
      </g>
    </g>
    <g
       id="lx-text908-9-1-7-8"
       transform="matrix(0.352778,0,0,0.352778,14.013791,5.8437058)">
      <defs
         id="defs3068">
        <g
           id="g3066">
          <symbol
             id="lx-text908-9-1-7-8-glyph0-0"
             overflow="visible">
            <path
               id="path3060"
               d=""
               style="stroke:none;" />
          </symbol>
          <symbol
             id="lx-text908-9-1-7-8-glyph0-1"
             overflow="visible">
            <path
               id="path3063"
               d="M 2.765625 -8 C 2.765625 -8.046875 2.796875 -8.109375 2.796875 -8.171875 C 2.796875 -8.296875 2.671875 -8.296875 2.65625 -8.296875 C 2.640625 -8.296875 2.21875 -8.265625 2 -8.234375 C 1.796875 -8.21875 1.609375 -8.203125 1.40625 -8.1875 C 1.109375 -8.15625 1.03125 -8.15625 1.03125 -7.9375 C 1.03125 -7.8125 1.140625 -7.8125 1.265625 -7.8125 C 1.875 -7.8125 1.875 -7.703125 1.875 -7.59375 C 1.875 -7.5 1.78125 -7.15625 1.734375 -6.9375 L 1.453125 -5.796875 C 1.328125 -5.3125 0.640625 -2.609375 0.59375 -2.390625 C 0.53125 -2.09375 0.53125 -1.890625 0.53125 -1.734375 C 0.53125 -0.515625 1.21875 0.125 2 0.125 C 3.375 0.125 4.8125 -1.65625 4.8125 -3.390625 C 4.8125 -4.5 4.203125 -5.265625 3.296875 -5.265625 C 2.671875 -5.265625 2.109375 -4.75 1.890625 -4.515625 Z M 2.015625 -0.125 C 1.625 -0.125 1.203125 -0.40625 1.203125 -1.34375 C 1.203125 -1.734375 1.25 -1.953125 1.453125 -2.796875 C 1.5 -2.953125 1.6875 -3.71875 1.734375 -3.875 C 1.75 -3.96875 2.46875 -5.03125 3.28125 -5.03125 C 3.796875 -5.03125 4.046875 -4.5 4.046875 -3.890625 C 4.046875 -3.3125 3.703125 -1.953125 3.40625 -1.34375 C 3.109375 -0.6875 2.5625 -0.125 2.015625 -0.125 Z M 2.015625 -0.125 "
               style="stroke:none;" />
          </symbol>
        </g>
      </defs>
      <g
         id="lx-text908-9-1-7-8-surface1">
        <g
           id="g3072"
           style="fill:rgb(0%,0%,0%);fill-opacity:1;">
          <use
             id="use3070"
             y="0.0"
             x="0.0"
             xlink:href="#lx-text908-9-1-7-8-glyph0-1" />
        </g>
      </g>
    </g>
  </g>
</svg>
