<?xml version="1.0" encoding="UTF-8" standalone="no"?>
<!-- Created with Inkscape (http://www.inkscape.org/) -->

<svg
   xmlns:rendltx="http://NOTSET"
   xmlns:dc="http://purl.org/dc/elements/1.1/"
   xmlns:cc="http://creativecommons.org/ns#"
   xmlns:rdf="http://www.w3.org/1999/02/22-rdf-syntax-ns#"
   xmlns:svg="http://www.w3.org/2000/svg"
   xmlns="http://www.w3.org/2000/svg"
   xmlns:xlink="http://www.w3.org/1999/xlink"
   xmlns:sodipodi="http://sodipodi.sourceforge.net/DTD/sodipodi-0.dtd"
   xmlns:inkscape="http://www.inkscape.org/namespaces/inkscape"
   width="47.435215mm"
   height="42.002525mm"
   viewBox="0 0 47.435215 42.002525"
   version="1.1"
   id="svg8"
   inkscape:version="0.92.4 (5da689c313, 2019-01-14)"
   sodipodi:docname="drivetrainhub_math_point_3d.svg">
  <defs
     id="defs2">
    <marker
       inkscape:stockid="Arrow2Mend"
       orient="auto"
       refY="0"
       refX="0"
       id="Arrow2Mend"
       style="overflow:visible"
       inkscape:isstock="true">
      <path
         id="path1083"
         style="fill:#000000;fill-opacity:1;fill-rule:evenodd;stroke:#000000;stroke-width:0.625;stroke-linejoin:round;stroke-opacity:1"
         d="M 8.7185878,4.0337352 -2.2072895,0.01601326 8.7185884,-4.0017078 c -1.7454984,2.3720609 -1.7354408,5.6174519 -6e-7,8.035443 z"
         transform="scale(-0.6)"
         inkscape:connector-curvature="0" />
    </marker>
    <marker
       inkscape:stockid="Arrow1Mend"
       orient="auto"
       refY="0"
       refX="0"
       id="Arrow1Mend"
       style="overflow:visible"
       inkscape:isstock="true">
      <path
         id="path1065"
         d="M 0,0 5,-5 -12.5,0 5,5 Z"
         style="fill:#000000;fill-opacity:1;fill-rule:evenodd;stroke:#000000;stroke-width:1.00000003pt;stroke-opacity:1"
         transform="matrix(-0.4,0,0,-0.4,-4,0)"
         inkscape:connector-curvature="0" />
    </marker>
    <marker
       inkscape:stockid="Arrow1Lstart"
       orient="auto"
       refY="0"
       refX="0"
       id="Arrow1Lstart"
       style="overflow:visible"
       inkscape:isstock="true">
      <path
         id="path1056"
         d="M 0,0 5,-5 -12.5,0 5,5 Z"
         style="fill:#000000;fill-opacity:1;fill-rule:evenodd;stroke:#000000;stroke-width:1.00000003pt;stroke-opacity:1"
         transform="matrix(0.8,0,0,0.8,10,0)"
         inkscape:connector-curvature="0" />
    </marker>
  </defs>
  <sodipodi:namedview
     id="base"
     pagecolor="#ffffff"
     bordercolor="#666666"
     borderopacity="1.0"
     inkscape:pageopacity="0.0"
     inkscape:pageshadow="2"
     inkscape:zoom="2.5921308"
     inkscape:cx="41.543961"
     inkscape:cy="126.88561"
     inkscape:document-units="mm"
     inkscape:current-layer="ltx-render-layer"
     showgrid="false"
     inkscape:object-paths="true"
     inkscape:snap-intersection-paths="true"
     inkscape:snap-smooth-nodes="true"
     inkscape:snap-midpoints="true"
     showguides="false"
     inkscape:guide-bbox="true"
     inkscape:snap-perpendicular="true"
     inkscape:snap-tangential="true"
     inkscape:window-width="1920"
     inkscape:window-height="1046"
     inkscape:window-x="-11"
     inkscape:window-y="-11"
     inkscape:window-maximized="1"
     inkscape:snap-object-midpoints="false"
     inkscape:snap-center="true">
    <sodipodi:guide
       position="4.4868941,1.2457451"
       orientation="0.70710676,0.7071068"
       id="guide2417"
       inkscape:locked="false" />
  </sodipodi:namedview>
  <metadata
     id="metadata5">
    <rdf:RDF>
      <cc:Work
         rdf:about="">
        <dc:format>image/svg+xml</dc:format>
        <dc:type
           rdf:resource="http://purl.org/dc/dcmitype/StillImage" />
        <dc:title />
      </cc:Work>
    </rdf:RDF>
  </metadata>
  <g
     inkscape:label="Drawing"
     inkscape:groupmode="layer"
     id="layer1"
     transform="translate(-27.772829,-18.742425)">
    <g
       id="g821"
       style="stroke-width:0.5;stroke-miterlimit:4;stroke-dasharray:none">
      <path
         sodipodi:nodetypes="ccc"
         inkscape:connector-curvature="0"
         id="path815"
         d="M 44.60119,19.91659 V 47.157737 L 32.259724,59.499204"
         style="fill:none;stroke:#000000;stroke-width:0.5;stroke-linecap:round;stroke-linejoin:miter;stroke-miterlimit:4;stroke-dasharray:none;stroke-opacity:1" />
      <path
         sodipodi:nodetypes="cc"
         inkscape:connector-curvature="0"
         id="path817"
         d="M 44.60119,47.157737 H 73.713224"
         style="fill:none;stroke:#000000;stroke-width:0.5;stroke-linecap:round;stroke-linejoin:miter;stroke-miterlimit:4;stroke-dasharray:none;stroke-opacity:1" />
    </g>
    <path
       style="fill:none;stroke:#fc7500;stroke-width:0.30000001;stroke-linecap:butt;stroke-linejoin:miter;stroke-miterlimit:4;stroke-dasharray:none;stroke-opacity:1"
       d="M 37.867306,53.89162 H 57.54453 V 32.693259"
       id="path1870"
       inkscape:connector-curvature="0" />
    <path
       style="fill:none;stroke:#7b7b7b;stroke-width:0.26499999;stroke-linecap:butt;stroke-linejoin:miter;stroke-miterlimit:4;stroke-dasharray:0.26499999, 0.52999997;stroke-dashoffset:0;stroke-opacity:1"
       d="M 64.278413,47.157736 57.54453,53.89162"
       id="path1872"
       inkscape:connector-curvature="0" />
    <path
       style="fill:none;stroke:#7b7b7b;stroke-width:0.26499999;stroke-linecap:butt;stroke-linejoin:miter;stroke-miterlimit:4;stroke-dasharray:0.26499999, 0.52999997;stroke-dashoffset:0;stroke-opacity:1"
       d="M 64.278413,25.959375 57.54453,32.693259"
       id="path1872-7"
       inkscape:connector-curvature="0" />
    <path
       style="fill:none;stroke:#7b7b7b;stroke-width:0.26458332;stroke-linecap:butt;stroke-linejoin:miter;stroke-miterlimit:4;stroke-dasharray:0.26458332, 0.52916663;stroke-dashoffset:0;stroke-opacity:1"
       d="M 37.867307,32.693259 H 57.54453"
       id="path1889"
       inkscape:connector-curvature="0" />
    <path
       style="fill:none;stroke:#7b7b7b;stroke-width:0.26458332;stroke-linecap:butt;stroke-linejoin:miter;stroke-miterlimit:4;stroke-dasharray:0.26458332, 0.52916663;stroke-dashoffset:0;stroke-opacity:1"
       d="M 37.867307,32.693259 V 53.89162"
       id="path1889-0"
       inkscape:connector-curvature="0" />
    <path
       style="fill:none;stroke:#7b7b7b;stroke-width:0.26499999;stroke-linecap:butt;stroke-linejoin:miter;stroke-miterlimit:4;stroke-dasharray:0.26499999, 0.52999997;stroke-dashoffset:0;stroke-opacity:1"
       d="m 44.60119,25.959375 -6.733883,6.733884"
       id="path1872-7-2"
       inkscape:connector-curvature="0" />
    <path
       style="fill:none;stroke:#7b7b7b;stroke-width:0.26458332;stroke-linecap:butt;stroke-linejoin:miter;stroke-miterlimit:4;stroke-dasharray:0.26458332, 0.52916663;stroke-dashoffset:0;stroke-opacity:1"
       d="M 44.60119,25.959375 H 64.278413"
       id="path1889-1"
       inkscape:connector-curvature="0" />
    <path
       style="fill:none;stroke:#7b7b7b;stroke-width:0.26458332;stroke-linecap:butt;stroke-linejoin:miter;stroke-miterlimit:4;stroke-dasharray:0.26458332, 0.52916663;stroke-dashoffset:0;stroke-opacity:1"
       d="M 64.278413,25.959375 V 47.157736"
       id="path1889-0-4"
       inkscape:connector-curvature="0" />
    <circle
       id="path1951"
       style="fill:#000000;stroke:none;stroke-width:1"
       cx="57.544529"
       cy="32.69326"
       r="0.84375" />
    <path
       style="fill:none;stroke:#fc7500;stroke-width:0.30000001;stroke-linecap:butt;stroke-linejoin:miter;stroke-miterlimit:4;stroke-dasharray:none;stroke-opacity:1"
       d="M 44.60119,47.157736 37.867307,53.89162"
       id="path1953"
       inkscape:connector-curvature="0" />
    <circle
       id="path1951-7"
       style="fill:#000000;stroke:none;stroke-width:1"
       cx="44.601189"
       cy="47.157738"
       r="0.84375006" />
  </g>
  <g
     inkscape:groupmode="layer"
     id="layer2"
     inkscape:label="Text"
     style="display:none"
     transform="translate(-0.46309943,-4.6683551)">
    <text
       xml:space="preserve"
       style="font-style:normal;font-weight:normal;font-size:4.23333311px;line-height:1.25;font-family:sans-serif;letter-spacing:0px;word-spacing:0px;fill:#000000;fill-opacity:1;stroke:none;stroke-width:0.26458332"
       x="6.936687"
       y="49.591599"
       id="text908"><tspan
         sodipodi:role="line"
         id="tspan906"
         x="6.936687"
         y="49.591599"
         style="font-size:4.23333311px;stroke-width:0.26458332">$X$</tspan></text>
    <text
       xml:space="preserve"
       style="font-style:normal;font-weight:normal;font-size:4.23333311px;line-height:1.25;font-family:sans-serif;letter-spacing:0px;word-spacing:0px;fill:#000000;fill-opacity:1;stroke:none;stroke-width:0.26458332"
       x="42.401508"
       y="31.369242"
       id="text908-9"><tspan
         sodipodi:role="line"
         id="tspan906-0"
         x="42.401508"
         y="31.369242"
         style="font-size:4.23333311px;stroke-width:0.26458332">$Y$</tspan></text>
    <text
       xml:space="preserve"
       style="font-style:normal;font-weight:normal;font-size:4.23333311px;line-height:1.25;font-family:sans-serif;letter-spacing:0px;word-spacing:0px;fill:#000000;fill-opacity:1;stroke:none;stroke-width:0.26458332"
       x="7.7052612"
       y="12.943521"
       id="text908-1"><tspan
         sodipodi:role="line"
         id="tspan906-05"
         x="7.7052612"
         y="12.943521"
         style="font-size:4.23333311px;stroke-width:0.26458332">$Z$</tspan></text>
    <text
       xml:space="preserve"
       style="font-style:normal;font-weight:normal;font-size:4.23333311px;line-height:1.25;font-family:sans-serif;letter-spacing:0px;word-spacing:0px;display:inline;fill:#000000;fill-opacity:1;stroke:none;stroke-width:0.26458332"
       x="42.586475"
       y="15.023758"
       id="text908-1-1-88"><tspan
         sodipodi:role="line"
         id="tspan906-05-3-0"
         x="42.586475"
         y="15.023758"
         style="font-size:4.23333311px;stroke-width:0.26458332">$(x,y,z)$</tspan></text>
    <text
       xml:space="preserve"
       style="font-style:normal;font-weight:normal;font-size:4.23333311px;line-height:1.25;font-family:sans-serif;letter-spacing:0px;word-spacing:0px;display:inline;fill:#000000;fill-opacity:1;stroke:none;stroke-width:0.26458332"
       x="1.4308842"
       y="32.00285"
       id="text908-9-5"><tspan
         sodipodi:role="line"
         id="tspan906-0-6"
         x="1.4308842"
         y="32.00285"
         style="font-size:4.23333311px;stroke-width:0.26458332">$O$</tspan></text>
  </g>
  <g
     rendltx:math="False"
     rendltx:newline="False"
     rendltx:fontsize="12.0"
     rendltx:depth="0.0"
     rendltx:scale="1.0"
     rendltx:packages="amsmath,amssymb"
     rendltx:preamble=""
     id="ltx-render-layer"
     inkscape:groupmode="layer"
     inkscape:label="Rendered Latex"
     transform="translate(-0.46309943,-4.6683551)">
    <g
       id="lx-text908"
       transform="matrix(0.352778,0,0,0.352778,0.35836846,46.670881)">
      <defs
         id="defs2238">
        <g
           id="g2236">
          <symbol
             id="lx-text908-glyph0-0"
             overflow="visible"
             style="overflow:visible">
            <path
               id="path2230"
               d=""
               style="stroke:none"
               inkscape:connector-curvature="0" />
          </symbol>
          <symbol
             id="lx-text908-glyph0-1"
             overflow="visible"
             style="overflow:visible">
            <path
               id="path2233"
               d="m 5.671875,-4.859375 -1.125,-2.609375 C 4.703125,-7.75 5.0625,-7.8125 5.21875,-7.8125 c 0.0625,0 0.203125,-0.015625 0.203125,-0.21875 0,-0.125 -0.109375,-0.125 -0.1875,-0.125 -0.203125,0 -0.4375,0.015625 -0.640625,0.015625 H 3.890625 c -0.71875,0 -1.25,-0.015625 -1.265625,-0.015625 -0.09375,0 -0.203125,0 -0.203125,0.21875 0,0.125 0.09375,0.125 0.25,0.125 0.703125,0 0.75,0.109375 0.859375,0.40625 l 1.421875,3.3125 -2.59375,2.78125 C 1.9375,-0.84375 1.421875,-0.390625 0.53125,-0.34375 0.390625,-0.328125 0.296875,-0.328125 0.296875,-0.125 0.296875,-0.078125 0.3125,0 0.4375,0 0.609375,0 0.78125,-0.03125 0.953125,-0.03125 h 0.5625 C 1.90625,-0.03125 2.3125,0 2.6875,0 c 0.078125,0 0.234375,0 0.234375,-0.21875 0,-0.109375 -0.09375,-0.125 -0.15625,-0.125 -0.25,-0.03125 -0.40625,-0.15625 -0.40625,-0.34375 0,-0.203125 0.15625,-0.359375 0.5,-0.71875 l 1.0625,-1.15625 C 4.1875,-2.828125 4.8125,-3.53125 5.078125,-3.796875 l 1.25,2.953125 c 0.015625,0.015625 0.0625,0.140625 0.0625,0.15625 0,0.109375 -0.265625,0.3125 -0.640625,0.34375 -0.078125,0 -0.203125,0.015625 -0.203125,0.21875 C 5.546875,0 5.671875,0 5.71875,0 5.921875,0 6.171875,-0.03125 6.375,-0.03125 H 7.6875 C 7.90625,-0.03125 8.125,0 8.328125,0 c 0.09375,0 0.21875,0 0.21875,-0.234375 0,-0.109375 -0.125,-0.109375 -0.234375,-0.109375 C 7.609375,-0.359375 7.578125,-0.421875 7.375,-0.859375 L 5.796875,-4.5625 7.3125,-6.1875 c 0.125,-0.125 0.390625,-0.421875 0.5,-0.546875 0.515625,-0.53125 1,-1.015625 1.96875,-1.078125 0.109375,-0.015625 0.234375,-0.015625 0.234375,-0.21875 0,-0.125 -0.109375,-0.125 -0.15625,-0.125 -0.171875,0 -0.34375,0.015625 -0.515625,0.015625 H 8.796875 C 8.421875,-8.140625 8,-8.15625 7.625,-8.15625 c -0.078125,0 -0.21875,0 -0.21875,0.203125 0,0.125 0.078125,0.140625 0.140625,0.140625 0.203125,0.015625 0.40625,0.109375 0.40625,0.34375 L 7.9375,-7.453125 C 7.921875,-7.359375 7.90625,-7.25 7.765625,-7.09375 Z m 0,0"
               style="stroke:none"
               inkscape:connector-curvature="0" />
          </symbol>
        </g>
      </defs>
      <g
         id="lx-text908-surface1">
        <g
           id="g2242"
           style="fill:#000000;fill-opacity:1">
          <use
             id="use2240"
             y="0"
             x="0"
             xlink:href="#lx-text908-glyph0-1"
             width="100%"
             height="100%" />
        </g>
      </g>
    </g>
    <g
       id="lx-text908-9"
       transform="matrix(0.352778,0,0,0.352778,44.750873,37.520243)">
      <defs
         id="defs2254">
        <g
           id="g2252">
          <symbol
             id="lx-text908-9-glyph0-0"
             overflow="visible"
             style="overflow:visible">
            <path
               id="path2246"
               d=""
               style="stroke:none"
               inkscape:connector-curvature="0" />
          </symbol>
          <symbol
             id="lx-text908-9-glyph0-1"
             overflow="visible"
             style="overflow:visible">
            <path
               id="path2249"
               d="M 7.03125,-6.84375 7.296875,-7.109375 C 7.828125,-7.65625 8.265625,-7.78125 8.6875,-7.8125 8.828125,-7.828125 8.921875,-7.84375 8.921875,-8.046875 8.921875,-8.15625 8.8125,-8.15625 8.78125,-8.15625 c -0.140625,0 -0.296875,0.015625 -0.4375,0.015625 H 7.859375 c -0.359375,0 -0.71875,-0.015625 -1.0625,-0.015625 -0.078125,0 -0.203125,0 -0.203125,0.21875 0,0.109375 0.109375,0.125 0.140625,0.125 0.359375,0.015625 0.359375,0.203125 0.359375,0.265625 0,0.140625 -0.09375,0.3125 -0.328125,0.59375 L 3.921875,-3.6875 2.5625,-7.328125 C 2.5,-7.5 2.5,-7.515625 2.5,-7.546875 c 0,-0.25 0.484375,-0.265625 0.625,-0.265625 0.15625,0 0.28125,0 0.28125,-0.21875 0,-0.125 -0.109375,-0.125 -0.171875,-0.125 -0.203125,0 -0.453125,0.015625 -0.65625,0.015625 H 1.25 c -0.203125,0 -0.4375,-0.015625 -0.640625,-0.015625 -0.078125,0 -0.21875,0 -0.21875,0.21875 0,0.125 0.109375,0.125 0.296875,0.125 0.578125,0 0.6875,0.109375 0.796875,0.375 l 1.484375,3.984375 c 0,0.03125 0.046875,0.171875 0.046875,0.203125 0,0.03125 -0.59375,2.390625 -0.625,2.515625 -0.09375,0.3125 -0.21875,0.375 -0.984375,0.390625 -0.203125,0 -0.296875,0 -0.296875,0.21875 C 1.109375,0 1.25,0 1.28125,0 1.5,0 1.75,-0.03125 1.96875,-0.03125 H 3.375 C 3.59375,-0.03125 3.84375,0 4.0625,0 c 0.078125,0 0.234375,0 0.234375,-0.21875 0,-0.125 -0.09375,-0.125 -0.296875,-0.125 -0.734375,0 -0.734375,-0.09375 -0.734375,-0.21875 0,-0.078125 0.09375,-0.46875 0.15625,-0.703125 l 0.421875,-1.71875 c 0.078125,-0.25 0.078125,-0.28125 0.1875,-0.390625 z m 0,0"
               style="stroke:none"
               inkscape:connector-curvature="0" />
          </symbol>
        </g>
      </defs>
      <g
         id="lx-text908-9-surface1">
        <g
           id="g2258"
           style="fill:#000000;fill-opacity:1">
          <use
             id="use2256"
             y="0"
             x="0"
             xlink:href="#lx-text908-9-glyph0-1"
             width="100%"
             height="100%" />
        </g>
      </g>
    </g>
    <g
       id="lx-text908-1"
       transform="matrix(0.352778,0,0,0.352778,12.843342,7.5457007)">
      <defs
         id="defs2270">
        <g
           id="g2268">
          <symbol
             id="lx-text908-1-glyph0-0"
             overflow="visible"
             style="overflow:visible">
            <path
               id="path2262"
               d=""
               style="stroke:none"
               inkscape:connector-curvature="0" />
          </symbol>
          <symbol
             id="lx-text908-1-glyph0-1"
             overflow="visible"
             style="overflow:visible">
            <path
               id="path2265"
               d="M 8.359375,-7.796875 C 8.4375,-7.875 8.5,-7.953125 8.5,-8.0625 8.5,-8.15625 8.484375,-8.15625 8.21875,-8.15625 h -4.9375 c -0.28125,0 -0.296875,0 -0.359375,0.21875 l -0.65625,2.15625 C 2.21875,-5.671875 2.21875,-5.640625 2.21875,-5.625 c 0,0.0625 0.046875,0.125 0.125,0.125 0.09375,0 0.125,-0.046875 0.171875,-0.203125 C 2.953125,-7 3.53125,-7.8125 5.421875,-7.8125 h 1.96875 L 0.84375,-0.40625 C 0.734375,-0.28125 0.6875,-0.234375 0.6875,-0.09375 0.6875,0 0.734375,0 0.96875,0 H 6.078125 C 6.34375,0 6.359375,-0.015625 6.4375,-0.234375 L 7.265625,-2.875 c 0.015625,-0.03125 0.03125,-0.109375 0.03125,-0.15625 0,-0.0625 -0.046875,-0.125 -0.109375,-0.125 -0.09375,0 -0.109375,0.015625 -0.203125,0.3125 -0.5,1.546875 -1.03125,2.46875 -3.109375,2.46875 H 1.8125 Z m 0,0"
               style="stroke:none"
               inkscape:connector-curvature="0" />
          </symbol>
        </g>
      </defs>
      <g
         id="lx-text908-1-surface1">
        <g
           id="g2274"
           style="fill:#000000;fill-opacity:1">
          <use
             id="use2272"
             y="0"
             x="0"
             xlink:href="#lx-text908-1-glyph0-1"
             width="100%"
             height="100%" />
        </g>
      </g>
    </g>
    <g
       id="lx-text908-1-1-88"
       transform="matrix(0.352778,0,0,0.352778,31.794584,20.036815)">
      <defs
         id="defs2304">
        <g
           id="g2302">
          <symbol
             id="lx-text908-1-1-88-glyph0-0"
             overflow="visible"
             style="overflow:visible">
            <path
               id="path2278"
               d=""
               style="stroke:none"
               inkscape:connector-curvature="0" />
          </symbol>
          <symbol
             id="lx-text908-1-1-88-glyph0-1"
             overflow="visible"
             style="overflow:visible">
            <path
               id="path2281"
               d="m 3.890625,2.90625 c 0,-0.03125 0,-0.0625 -0.203125,-0.265625 C 2.484375,1.4375 1.8125,-0.53125 1.8125,-2.96875 c 0,-2.328125 0.5625,-4.328125 1.953125,-5.734375 0.125,-0.109375 0.125,-0.125 0.125,-0.171875 0,-0.0625 -0.0625,-0.09375 -0.109375,-0.09375 -0.15625,0 -1.140625,0.859375 -1.71875,2.03125 -0.609375,1.21875 -0.890625,2.484375 -0.890625,3.96875 0,1.0625 0.171875,2.484375 0.78125,3.75 C 2.671875,2.21875 3.640625,3 3.78125,3 3.828125,3 3.890625,2.96875 3.890625,2.90625 Z m 0,0"
               style="stroke:none"
               inkscape:connector-curvature="0" />
          </symbol>
          <symbol
             id="lx-text908-1-1-88-glyph0-2"
             overflow="visible"
             style="overflow:visible">
            <path
               id="path2284"
               d="M 3.375,-2.96875 C 3.375,-3.890625 3.25,-5.359375 2.578125,-6.75 1.875,-8.1875 0.890625,-8.96875 0.765625,-8.96875 c -0.046875,0 -0.109375,0.03125 -0.109375,0.09375 0,0.046875 0,0.0625 0.203125,0.265625 1.203125,1.203125 1.859375,3.1875 1.859375,5.625 0,2.3125 -0.5625,4.3125 -1.9375,5.71875 C 0.65625,2.84375 0.65625,2.875 0.65625,2.90625 0.65625,2.96875 0.71875,3 0.765625,3 0.921875,3 1.90625,2.140625 2.484375,0.96875 3.09375,-0.25 3.375,-1.546875 3.375,-2.96875 Z m 0,0"
               style="stroke:none"
               inkscape:connector-curvature="0" />
          </symbol>
          <symbol
             id="lx-text908-1-1-88-glyph1-0"
             overflow="visible"
             style="overflow:visible">
            <path
               id="path2287"
               d=""
               style="stroke:none"
               inkscape:connector-curvature="0" />
          </symbol>
          <symbol
             id="lx-text908-1-1-88-glyph1-1"
             overflow="visible"
             style="overflow:visible">
            <path
               id="path2290"
               d="m 5.671875,-4.875 c -0.390625,0.0625 -0.53125,0.359375 -0.53125,0.578125 0,0.296875 0.21875,0.390625 0.390625,0.390625 0.359375,0 0.609375,-0.3125 0.609375,-0.640625 0,-0.5 -0.578125,-0.71875 -1.078125,-0.71875 -0.71875,0 -1.125,0.71875 -1.234375,0.9375 -0.28125,-0.890625 -1.015625,-0.9375 -1.234375,-0.9375 -1.21875,0 -1.859375,1.5625 -1.859375,1.828125 0,0.046875 0.046875,0.109375 0.125,0.109375 0.09375,0 0.125,-0.078125 0.140625,-0.125 0.40625,-1.328125 1.21875,-1.578125 1.5625,-1.578125 0.53125,0 0.640625,0.5 0.640625,0.78125 0,0.265625 -0.078125,0.546875 -0.21875,1.125 L 2.578125,-1.5 c -0.171875,0.71875 -0.515625,1.375 -1.15625,1.375 -0.0625,0 -0.359375,0 -0.609375,-0.15625 C 1.25,-0.359375 1.34375,-0.71875 1.34375,-0.859375 1.34375,-1.09375 1.15625,-1.25 0.9375,-1.25 c -0.296875,0 -0.609375,0.265625 -0.609375,0.640625 0,0.5 0.5625,0.734375 1.078125,0.734375 0.578125,0 0.984375,-0.453125 1.234375,-0.953125 C 2.828125,-0.125 3.4375,0.125 3.875,0.125 5.09375,0.125 5.734375,-1.453125 5.734375,-1.703125 5.734375,-1.765625 5.6875,-1.8125 5.625,-1.8125 5.515625,-1.8125 5.5,-1.75 5.46875,-1.65625 5.140625,-0.609375 4.453125,-0.125 3.90625,-0.125 3.484375,-0.125 3.265625,-0.4375 3.265625,-0.921875 3.265625,-1.1875 3.3125,-1.375 3.5,-2.15625 L 3.921875,-3.796875 C 4.09375,-4.5 4.5,-5.03125 5.0625,-5.03125 c 0.015625,0 0.359375,0 0.609375,0.15625 z m 0,0"
               style="stroke:none"
               inkscape:connector-curvature="0" />
          </symbol>
          <symbol
             id="lx-text908-1-1-88-glyph1-2"
             overflow="visible"
             style="overflow:visible">
            <path
               id="path2293"
               d="m 2.328125,0.046875 c 0,-0.6875 -0.21875,-1.203125 -0.71875,-1.203125 -0.375,0 -0.5625,0.3125 -0.5625,0.578125 C 1.046875,-0.328125 1.21875,0 1.625,0 1.78125,0 1.90625,-0.046875 2.015625,-0.15625 2.046875,-0.171875 2.0625,-0.171875 2.0625,-0.171875 c 0.03125,0 0.03125,0.15625 0.03125,0.21875 C 2.09375,0.4375 2.015625,1.21875 1.328125,2 1.1875,2.140625 1.1875,2.15625 1.1875,2.1875 c 0,0.0625 0.0625,0.125 0.125,0.125 0.09375,0 1.015625,-0.890625 1.015625,-2.265625 z m 0,0"
               style="stroke:none"
               inkscape:connector-curvature="0" />
          </symbol>
          <symbol
             id="lx-text908-1-1-88-glyph1-3"
             overflow="visible"
             style="overflow:visible">
            <path
               id="path2296"
               d="m 3.140625,1.34375 c -0.3125,0.453125 -0.78125,0.859375 -1.375,0.859375 C 1.625,2.203125 1.046875,2.171875 0.875,1.625 c 0.03125,0.015625 0.09375,0.015625 0.109375,0.015625 0.359375,0 0.609375,-0.3125 0.609375,-0.59375 C 1.59375,0.78125 1.359375,0.6875 1.1875,0.6875 c -0.203125,0 -0.609375,0.140625 -0.609375,0.71875 0,0.609375 0.515625,1.03125 1.1875,1.03125 C 2.96875,2.4375 4.171875,1.34375 4.5,0.015625 L 5.671875,-4.65625 C 5.6875,-4.703125 5.71875,-4.78125 5.71875,-4.859375 5.71875,-5.03125 5.5625,-5.15625 5.390625,-5.15625 5.28125,-5.15625 5.03125,-5.109375 4.9375,-4.75 L 4.046875,-1.234375 C 4,-1.015625 4,-0.984375 3.890625,-0.859375 3.65625,-0.53125 3.265625,-0.125 2.6875,-0.125 c -0.671875,0 -0.734375,-0.65625 -0.734375,-0.96875 0,-0.6875 0.328125,-1.609375 0.65625,-2.46875 0.125,-0.34375 0.203125,-0.515625 0.203125,-0.75 0,-0.5 -0.359375,-0.953125 -0.953125,-0.953125 -1.09375,0 -1.53125,1.734375 -1.53125,1.828125 0,0.046875 0.046875,0.109375 0.125,0.109375 0.109375,0 0.125,-0.046875 0.171875,-0.21875 0.28125,-1 0.734375,-1.484375 1.203125,-1.484375 0.109375,0 0.3125,0 0.3125,0.390625 0,0.3125 -0.125,0.65625 -0.3125,1.109375 C 1.25,-1.953125 1.25,-1.5625 1.25,-1.28125 1.25,-0.140625 2.0625,0.125 2.65625,0.125 3,0.125 3.4375,0.015625 3.84375,-0.4375 l 0.015625,0.015625 C 3.6875,0.28125 3.5625,0.75 3.140625,1.34375 Z m 0,0"
               style="stroke:none"
               inkscape:connector-curvature="0" />
          </symbol>
          <symbol
             id="lx-text908-1-1-88-glyph1-4"
             overflow="visible"
             style="overflow:visible">
            <path
               id="path2299"
               d="m 1.515625,-0.96875 c 0.515625,-0.578125 0.9375,-0.953125 1.53125,-1.5 C 3.765625,-3.078125 4.078125,-3.375 4.25,-3.5625 5.078125,-4.390625 5.5,-5.078125 5.5,-5.171875 c 0,-0.09375 -0.09375,-0.09375 -0.125,-0.09375 -0.078125,0 -0.109375,0.046875 -0.15625,0.125 C 4.90625,-4.625 4.625,-4.375 4.3125,-4.375 c -0.25,0 -0.375,-0.109375 -0.609375,-0.390625 -0.25,-0.296875 -0.453125,-0.5 -0.796875,-0.5 -0.875,0 -1.40625,1.078125 -1.40625,1.328125 0,0.046875 0.015625,0.109375 0.125,0.109375 0.09375,0 0.109375,-0.046875 0.140625,-0.125 0.203125,-0.484375 0.78125,-0.5625 1,-0.5625 0.265625,0 0.5,0.078125 0.75,0.1875 0.453125,0.1875 0.640625,0.1875 0.765625,0.1875 0.078125,0 0.125,0 0.1875,0 C 4.078125,-3.6875 3.4375,-3.109375 2.890625,-2.625 L 1.6875,-1.5 c -0.734375,0.734375 -1.171875,1.4375 -1.171875,1.53125 0,0.0625 0.0625,0.09375 0.125,0.09375 0.078125,0 0.09375,-0.015625 0.171875,-0.15625 0.1875,-0.296875 0.578125,-0.75 1.015625,-0.75 0.25,0 0.375,0.09375 0.609375,0.390625 C 2.671875,-0.125 2.875,0.125 3.25,0.125 c 1.171875,0 1.84375,-1.53125 1.84375,-1.796875 0,-0.046875 -0.015625,-0.125 -0.140625,-0.125 -0.09375,0 -0.09375,0.046875 -0.140625,0.171875 -0.265625,0.703125 -0.96875,0.984375 -1.4375,0.984375 -0.25,0 -0.484375,-0.078125 -0.734375,-0.1875 -0.484375,-0.1875 -0.609375,-0.1875 -0.765625,-0.1875 -0.125,0 -0.25,0 -0.359375,0.046875 z m 0,0"
               style="stroke:none"
               inkscape:connector-curvature="0" />
          </symbol>
        </g>
      </defs>
      <g
         id="lx-text908-1-1-88-surface1">
        <g
           id="g2308"
           style="fill:#000000;fill-opacity:1">
          <use
             id="use2306"
             y="0"
             x="0"
             xlink:href="#lx-text908-1-1-88-glyph0-1"
             width="100%"
             height="100%" />
        </g>
        <g
           id="g2314"
           style="fill:#000000;fill-opacity:1">
          <use
             id="use2310"
             y="0"
             x="4.553"
             xlink:href="#lx-text908-1-1-88-glyph1-1"
             width="100%"
             height="100%" />
          <use
             id="use2312"
             y="0"
             x="11.204873"
             xlink:href="#lx-text908-1-1-88-glyph1-2"
             width="100%"
             height="100%" />
        </g>
        <g
           id="g2318"
           style="fill:#000000;fill-opacity:1">
          <use
             id="use2316"
             y="0"
             x="16.453205"
             xlink:href="#lx-text908-1-1-88-glyph1-3"
             width="100%"
             height="100%" />
        </g>
        <g
           id="g2322"
           style="fill:#000000;fill-opacity:1">
          <use
             id="use2320"
             y="0"
             x="22.591005"
             xlink:href="#lx-text908-1-1-88-glyph1-2"
             width="100%"
             height="100%" />
        </g>
        <g
           id="g2326"
           style="fill:#000000;fill-opacity:1">
          <use
             id="use2324"
             y="0"
             x="27.827383"
             xlink:href="#lx-text908-1-1-88-glyph1-4"
             width="100%"
             height="100%" />
        </g>
        <g
           id="g2330"
           style="fill:#000000;fill-opacity:1">
          <use
             id="use2328"
             y="0"
             x="33.799999"
             xlink:href="#lx-text908-1-1-88-glyph0-2"
             width="100%"
             height="100%" />
        </g>
      </g>
    </g>
    <g
       id="lx-text908-9-5"
       transform="matrix(0.352778,0,0,0.352778,12.999462,33.492582)">
      <defs
         id="defs2342">
        <g
           id="g2340">
          <symbol
             id="lx-text908-9-5-glyph0-0"
             overflow="visible"
             style="overflow:visible">
            <path
               id="path2334"
               d=""
               style="stroke:none"
               inkscape:connector-curvature="0" />
          </symbol>
          <symbol
             id="lx-text908-9-5-glyph0-1"
             overflow="visible"
             style="overflow:visible">
            <path
               id="path2337"
               d="m 8.671875,-5.234375 c 0,-1.96875 -1.28125,-3.1875 -2.953125,-3.1875 -2.5625,0 -5.140625,2.75 -5.140625,5.515625 0,1.875 1.234375,3.15625 2.96875,3.15625 2.515625,0 5.125,-2.609375 5.125,-5.484375 z M 3.625,-0.03125 c -0.984375,0 -2.015625,-0.703125 -2.015625,-2.578125 0,-1.078125 0.390625,-2.859375 1.359375,-4.0625 0.875,-1.046875 1.890625,-1.484375 2.6875,-1.484375 1.046875,0 2.0625,0.765625 2.0625,2.484375 0,1.0625 -0.453125,2.734375 -1.25,3.859375 C 5.59375,-0.578125 4.5,-0.03125 3.625,-0.03125 Z m 0,0"
               style="stroke:none"
               inkscape:connector-curvature="0" />
          </symbol>
        </g>
      </defs>
      <g
         id="lx-text908-9-5-surface1">
        <g
           id="g2346"
           style="fill:#000000;fill-opacity:1">
          <use
             id="use2344"
             y="0"
             x="0"
             xlink:href="#lx-text908-9-5-glyph0-1"
             width="100%"
             height="100%" />
        </g>
      </g>
    </g>
  </g>
</svg>
