<?xml version="1.0" encoding="UTF-8" standalone="no"?>
<!-- Created with Inkscape (http://www.inkscape.org/) -->

<svg
   xmlns:rendltx="http://NOTSET"
   xmlns:dc="http://purl.org/dc/elements/1.1/"
   xmlns:cc="http://creativecommons.org/ns#"
   xmlns:rdf="http://www.w3.org/1999/02/22-rdf-syntax-ns#"
   xmlns:svg="http://www.w3.org/2000/svg"
   xmlns="http://www.w3.org/2000/svg"
   xmlns:xlink="http://www.w3.org/1999/xlink"
   xmlns:sodipodi="http://sodipodi.sourceforge.net/DTD/sodipodi-0.dtd"
   xmlns:inkscape="http://www.inkscape.org/namespaces/inkscape"
   width="150.47546mm"
   height="49.944969mm"
   viewBox="0 0 150.47548 49.944968"
   version="1.1"
   id="svg8"
   inkscape:version="0.92.4 (5da689c313, 2019-01-14)"
   sodipodi:docname="drivetrainhub_math_sine_and_cosine.svg">
  <defs
     id="defs2">
    <marker
       inkscape:isstock="true"
       style="overflow:visible"
       id="marker19414"
       refX="0"
       refY="0"
       orient="auto"
       inkscape:stockid="Arrow2Lend">
      <path
         inkscape:connector-curvature="0"
         transform="matrix(-1.1,0,0,-1.1,-1.1,0)"
         d="M 8.7185878,4.0337352 -2.2072895,0.01601326 8.7185884,-4.0017078 c -1.7454984,2.3720609 -1.7354408,5.6174519 -6e-7,8.035443 z"
         style="fill:#000000;fill-opacity:1;fill-rule:evenodd;stroke:#000000;stroke-width:0.625;stroke-linejoin:round;stroke-opacity:1"
         id="path19412" />
    </marker>
    <marker
       inkscape:isstock="true"
       style="overflow:visible"
       id="marker18637"
       refX="0"
       refY="0"
       orient="auto"
       inkscape:stockid="Arrow2Mend">
      <path
         inkscape:connector-curvature="0"
         transform="scale(-0.6)"
         d="M 8.7185878,4.0337352 -2.2072895,0.01601326 8.7185884,-4.0017078 c -1.7454984,2.3720609 -1.7354408,5.6174519 -6e-7,8.035443 z"
         style="fill:#000000;fill-opacity:1;fill-rule:evenodd;stroke:#000000;stroke-width:0.625;stroke-linejoin:round;stroke-opacity:1"
         id="path18635" />
    </marker>
    <marker
       inkscape:stockid="Arrow2Mstart"
       orient="auto"
       refY="0"
       refX="0"
       id="Arrow2Mstart"
       style="overflow:visible"
       inkscape:isstock="true">
      <path
         id="path3087"
         style="fill:#000000;fill-opacity:1;fill-rule:evenodd;stroke:#000000;stroke-width:0.625;stroke-linejoin:round;stroke-opacity:1"
         d="M 8.7185878,4.0337352 -2.2072895,0.01601326 8.7185884,-4.0017078 c -1.7454984,2.3720609 -1.7354408,5.6174519 -6e-7,8.035443 z"
         transform="scale(0.6)"
         inkscape:connector-curvature="0" />
    </marker>
    <marker
       inkscape:stockid="Arrow2Lend"
       orient="auto"
       refY="0"
       refX="0"
       id="Arrow2Lend"
       style="overflow:visible"
       inkscape:isstock="true"
       inkscape:collect="always">
      <path
         id="path3084"
         style="fill:#000000;fill-opacity:1;fill-rule:evenodd;stroke:#000000;stroke-width:0.625;stroke-linejoin:round;stroke-opacity:1"
         d="M 8.7185878,4.0337352 -2.2072895,0.01601326 8.7185884,-4.0017078 c -1.7454984,2.3720609 -1.7354408,5.6174519 -6e-7,8.035443 z"
         transform="matrix(-1.1,0,0,-1.1,-1.1,0)"
         inkscape:connector-curvature="0" />
    </marker>
    <marker
       inkscape:isstock="true"
       style="overflow:visible"
       id="marker17638"
       refX="0"
       refY="0"
       orient="auto"
       inkscape:stockid="Arrow2Mend">
      <path
         inkscape:connector-curvature="0"
         transform="scale(-0.6)"
         d="M 8.7185878,4.0337352 -2.2072895,0.01601326 8.7185884,-4.0017078 c -1.7454984,2.3720609 -1.7354408,5.6174519 -6e-7,8.035443 z"
         style="fill:#000000;fill-opacity:1;fill-rule:evenodd;stroke:#000000;stroke-width:0.625;stroke-linejoin:round;stroke-opacity:1"
         id="path17636" />
    </marker>
    <marker
       inkscape:stockid="TriangleInM"
       orient="auto"
       refY="0"
       refX="0"
       id="TriangleInM"
       style="overflow:visible"
       inkscape:isstock="true">
      <path
         id="path3199"
         d="M 5.77,0 -2.88,5 V -5 Z"
         style="fill:#000000;fill-opacity:1;fill-rule:evenodd;stroke:#000000;stroke-width:1.00000003pt;stroke-opacity:1"
         transform="scale(-0.4)"
         inkscape:connector-curvature="0" />
    </marker>
    <marker
       inkscape:stockid="Arrow1Mend"
       orient="auto"
       refY="0"
       refX="0"
       id="Arrow1Mend"
       style="overflow:visible"
       inkscape:isstock="true">
      <path
         id="path1065"
         d="M 0,0 5,-5 -12.5,0 5,5 Z"
         style="fill:#000000;fill-opacity:1;fill-rule:evenodd;stroke:#000000;stroke-width:1.00000003pt;stroke-opacity:1"
         transform="matrix(-0.4,0,0,-0.4,-4,0)"
         inkscape:connector-curvature="0" />
    </marker>
    <marker
       inkscape:stockid="Arrow1Lstart"
       orient="auto"
       refY="0"
       refX="0"
       id="Arrow1Lstart"
       style="overflow:visible"
       inkscape:isstock="true">
      <path
         id="path1056"
         d="M 0,0 5,-5 -12.5,0 5,5 Z"
         style="fill:#000000;fill-opacity:1;fill-rule:evenodd;stroke:#000000;stroke-width:1.00000003pt;stroke-opacity:1"
         transform="matrix(0.8,0,0,0.8,10,0)"
         inkscape:connector-curvature="0" />
    </marker>
    <marker
       inkscape:stockid="Arrow2Mend"
       orient="auto"
       refY="0"
       refX="0"
       id="Arrow2Mend-7"
       style="overflow:visible"
       inkscape:isstock="true"
       inkscape:collect="always">
      <path
         id="path1083-8"
         style="fill:#000000;fill-opacity:1;fill-rule:evenodd;stroke:#000000;stroke-width:0.625;stroke-linejoin:round;stroke-opacity:1"
         d="M 8.7185878,4.0337352 -2.2072895,0.01601326 8.7185884,-4.0017078 c -1.7454984,2.3720609 -1.7354408,5.6174519 -6e-7,8.035443 z"
         transform="scale(-0.6)"
         inkscape:connector-curvature="0" />
    </marker>
    <marker
       inkscape:stockid="Arrow2Mstart"
       orient="auto"
       refY="0"
       refX="0"
       id="Arrow2Mstart-8"
       style="overflow:visible"
       inkscape:isstock="true">
      <path
         inkscape:connector-curvature="0"
         id="path3087-8"
         style="fill:#000000;fill-opacity:1;fill-rule:evenodd;stroke:#000000;stroke-width:0.625;stroke-linejoin:round;stroke-opacity:1"
         d="M 8.7185878,4.0337352 -2.2072895,0.01601326 8.7185884,-4.0017078 c -1.7454984,2.3720609 -1.7354408,5.6174519 -6e-7,8.035443 z"
         transform="scale(0.6)" />
    </marker>
    <marker
       inkscape:isstock="true"
       style="overflow:visible"
       id="marker18637-0"
       refX="0"
       refY="0"
       orient="auto"
       inkscape:stockid="Arrow2Mend">
      <path
         inkscape:connector-curvature="0"
         transform="scale(-0.6)"
         d="M 8.7185878,4.0337352 -2.2072895,0.01601326 8.7185884,-4.0017078 c -1.7454984,2.3720609 -1.7354408,5.6174519 -6e-7,8.035443 z"
         style="fill:#000000;fill-opacity:1;fill-rule:evenodd;stroke:#000000;stroke-width:0.625;stroke-linejoin:round;stroke-opacity:1"
         id="path18635-3" />
    </marker>
    <marker
       inkscape:stockid="Arrow2Mstart"
       orient="auto"
       refY="0"
       refX="0"
       id="Arrow2Mstart-8-4"
       style="overflow:visible"
       inkscape:isstock="true">
      <path
         inkscape:connector-curvature="0"
         id="path3087-8-1"
         style="fill:#000000;fill-opacity:1;fill-rule:evenodd;stroke:#000000;stroke-width:0.625;stroke-linejoin:round;stroke-opacity:1"
         d="M 8.7185878,4.0337352 -2.2072895,0.01601326 8.7185884,-4.0017078 c -1.7454984,2.3720609 -1.7354408,5.6174519 -6e-7,8.035443 z"
         transform="scale(0.6)" />
    </marker>
    <marker
       inkscape:isstock="true"
       style="overflow:visible"
       id="marker18637-0-1"
       refX="0"
       refY="0"
       orient="auto"
       inkscape:stockid="Arrow2Mend">
      <path
         inkscape:connector-curvature="0"
         transform="scale(-0.6)"
         d="M 8.7185878,4.0337352 -2.2072895,0.01601326 8.7185884,-4.0017078 c -1.7454984,2.3720609 -1.7354408,5.6174519 -6e-7,8.035443 z"
         style="fill:#000000;fill-opacity:1;fill-rule:evenodd;stroke:#000000;stroke-width:0.625;stroke-linejoin:round;stroke-opacity:1"
         id="path18635-3-6" />
    </marker>
  </defs>
  <sodipodi:namedview
     id="base"
     pagecolor="#ffffff"
     bordercolor="#666666"
     borderopacity="1.0"
     inkscape:pageopacity="0.0"
     inkscape:pageshadow="2"
     inkscape:zoom="1.6747477"
     inkscape:cx="248.24872"
     inkscape:cy="89.057863"
     inkscape:document-units="mm"
     inkscape:current-layer="ltx-render-layer"
     showgrid="false"
     inkscape:object-paths="true"
     inkscape:snap-intersection-paths="true"
     inkscape:snap-smooth-nodes="true"
     inkscape:snap-midpoints="true"
     showguides="false"
     inkscape:guide-bbox="true"
     inkscape:snap-perpendicular="true"
     inkscape:snap-tangential="true"
     inkscape:window-width="1920"
     inkscape:window-height="1046"
     inkscape:window-x="-11"
     inkscape:window-y="-11"
     inkscape:window-maximized="1"
     inkscape:snap-object-midpoints="false"
     inkscape:snap-center="true"
     inkscape:snap-nodes="false">
    <sodipodi:guide
       inkscape:locked="false"
       id="guide11484"
       orientation="-0.99998397,-0.0056625007"
       position="-45.376814,26.586199" />
    <sodipodi:guide
       inkscape:locked="false"
       id="guide13702"
       orientation="0,1"
       position="38.489906,44.292747" />
    <sodipodi:guide
       inkscape:locked="false"
       id="guide18263"
       orientation="1,0"
       position="38.489906,44.292747" />
    <sodipodi:guide
       inkscape:locked="false"
       id="guide18265"
       orientation="0,1"
       position="106.82993,0.78847774" />
    <sodipodi:guide
       inkscape:locked="false"
       id="guide18267"
       orientation="-1,0"
       position="106.82994,0.78847774" />
    <sodipodi:guide
       position="129.35502,22.540559"
       orientation="-1,0"
       id="guide22059"
       inkscape:locked="false" />
    <sodipodi:guide
       position="-7.318043,22.540559"
       orientation="1,0"
       id="guide22205"
       inkscape:locked="false" />
    <sodipodi:guide
       position="72.6602,22.540607"
       orientation="1,0"
       id="guide22207"
       inkscape:locked="false" />
    <sodipodi:guide
       position="140.99677,22.540559"
       orientation="1,0"
       id="guide22209"
       inkscape:locked="false" />
  </sodipodi:namedview>
  <metadata
     id="metadata5">
    <rdf:RDF>
      <cc:Work
         rdf:about="">
        <dc:format>image/svg+xml</dc:format>
        <dc:type
           rdf:resource="http://purl.org/dc/dcmitype/StillImage" />
        <dc:title />
      </cc:Work>
    </rdf:RDF>
  </metadata>
  <g
     inkscape:label="Drawing"
     inkscape:groupmode="layer"
     id="layer1"
     transform="translate(-41.652877,-4.2138017)"
     style="display:inline">
    <path
       transform="translate(27.309734,14.07407)"
       id="path17532"
       title="t sin(t)"
       d="m 18.66684,17.544141 c 1.570955,-1.570956 3.141909,-3.141817 4.712864,-4.676081 1.570956,-1.534263 3.141911,-3.0315996 4.712866,-4.4574314 1.570955,-1.4258319 3.141911,-2.7796295 4.712866,-4.0303591 1.570955,-1.2507296 3.141911,-2.3976864 4.712866,-3.41483102 1.570955,-1.0171446 3.14191,-1.90363029 4.712866,-2.63962938 1.570955,-0.735999 3.14191,-1.3205625 4.712866,-1.7410015 1.570955,-0.420439 3.14191,-0.6757467 4.712865,-0.7609664 1.570956,-0.08522 3.141911,6.663e-4 4.712866,0.2546506 1.570956,0.2539844 3.141911,0.6770482 4.712866,1.2583606 1.570955,0.5813124 3.141911,1.3217719 4.712866,2.20323085 1.570955,0.88145892 3.141911,1.90469115 4.712866,3.04508055 1.570955,1.1403895 3.14191,2.3985492 4.712866,3.7445458 1.570955,1.3459965 3.14191,2.7802536 4.712866,4.2689204 1.570955,1.488666 3.14191,3.031956 4.712865,4.593684 1.570956,1.561728 3.141911,3.141889 4.712866,4.703653 1.570956,1.561765 3.141911,3.10491 4.712866,4.593685 1.570955,1.488775 3.141911,2.922748 4.712866,4.26892 1.570962,1.346172 3.141902,2.603922 4.712852,3.744546 1.57094,1.140623 3.14189,2.16334 4.71283,3.04508 1.57095,0.881741 3.14189,1.621602 4.71285,2.203231 1.57095,0.581629 3.14191,1.00404 4.71287,1.258361 1.57095,0.25432 3.14191,0.33953 4.71286,0.25465 1.57096,-0.08488 3.14191,-0.340855 4.71287,-0.760966 1.57095,-0.420111 3.14191,-1.005303 4.71286,-1.741002 1.57096,-0.735698 3.14191,-1.622744 4.71287,-2.639629 1.57095,-1.016885 3.14191,-2.164308 4.71286,-3.414831 1.57096,-1.250524 3.14192,-2.60467 4.71287,-4.030359 1.57096,-1.425689 3.14191,-2.923241 4.71287,-4.457432 1.57095,-1.534191 3.14191,-3.105125 4.71286,-4.67608"
       style="fill:none;fill-opacity:0.1172161;stroke:#006fe1;stroke-width:0.60000002;stroke-linecap:round;stroke-linejoin:round;stroke-miterlimit:4;stroke-dasharray:none;stroke-dashoffset:0;stroke-opacity:1;paint-order:normal"
       inkscape:connector-curvature="0"
       sodipodi:nodetypes="cssssssssssssssssssssssssssssc" />
    <path
       transform="translate(27.309734,14.07407)"
       id="path3091"
       title="t cos(t)"
       d="m 18.666772,-4.2080383 c 1.576626,1.708e-4 3.153251,0.1716289 4.729877,0.51039 1.576625,0.3387611 3.153251,0.8454518 4.729877,1.5073047 1.576625,0.6618529 3.153251,1.47974228 4.729876,2.43373947 1.576626,0.95399723 3.153252,2.04484173 4.729877,3.24637533 1.576626,1.2015337 3.153252,2.5143266 4.729877,3.9072143 1.576626,1.3928877 3.153251,2.8662445 4.729877,4.3853565 1.576626,1.519112 3.153251,3.08414 4.729877,4.658444 1.576625,1.574304 3.153251,3.157824 4.729877,4.713707 1.576625,1.555884 3.153251,3.083853 4.729876,4.548564 1.576626,1.464712 3.153252,2.865683 4.729877,4.170735 1.576626,1.305051 3.153251,2.513517 4.729877,3.597885 1.576626,1.084369 3.153251,2.043823 4.729876,2.856805 1.57663,0.812981 3.15325,1.47856 4.72988,1.982141 1.57662,0.503581 3.15325,0.844163 4.72987,1.014796 1.57663,0.170633 3.15326,0.170294 4.72988,0 1.57663,-0.170293 3.15325,-0.511539 4.72988,-1.014796 1.57662,-0.503257 3.15325,-1.169452 4.72987,-1.982141 1.576627,-0.81269 3.153257,-1.772684 4.729877,-2.856805 1.57663,-1.08412 3.15325,-2.293026 4.72988,-3.597885 1.57662,-1.30486 3.15325,-2.706149 4.72988,-4.170735 1.57662,-1.464585 3.15325,-2.992735 4.72987,-4.548564 1.57663,-1.555828 3.15325,-3.139385 4.72988,-4.713707 1.57662,-1.574323 3.15325,-3.139241 4.72988,-4.658444 1.57662,-1.519203 3.15325,-2.9923088 4.72987,-4.3853565 1.57663,-1.3930477 3.15325,-2.7054595 4.72988,-3.9072143 1.57663,-1.2017548 3.15325,-2.2921062 4.72988,-3.24637533 1.57662,-0.95426913 3.15325,-1.77157657 4.72987,-2.43373947 1.57663,-0.6621629 3.15325,-1.16821 4.72988,-1.5073047 1.57663,-0.3390947 3.15325,-0.5102192 4.72988,-0.51039"
       style="fill:none;fill-opacity:1;stroke:#fc7500;stroke-width:0.60000002;stroke-linecap:round;stroke-linejoin:round;stroke-miterlimit:4;stroke-dasharray:none;stroke-dashoffset:0;stroke-opacity:1;paint-order:normal"
       inkscape:connector-curvature="0" />
    <path
       transform="translate(27.309734,14.07407)"
       style="display:inline;fill:none;stroke:#000000;stroke-width:0.26458332px;stroke-linecap:butt;stroke-linejoin:miter;stroke-opacity:1;marker-end:url(#marker19414)"
       d="M 14.343143,17.54414 H 161.1475"
       id="path17584"
       inkscape:connector-curvature="0"
       sodipodi:nodetypes="cc" />
    <path
       transform="translate(27.309734,14.07407)"
       style="display:inline;fill:none;stroke:#000000;stroke-width:0.26458332px;stroke-linecap:butt;stroke-linejoin:miter;stroke-opacity:1;marker-end:url(#Arrow2Lend)"
       d="M 18.666772,39.453394 V -9.4179635"
       id="path17628"
       inkscape:connector-curvature="0"
       sodipodi:nodetypes="cc" />
    <path
       transform="translate(27.309734,14.07407)"
       style="display:inline;fill:none;stroke:#000000;stroke-width:0.26458332px;stroke-linecap:butt;stroke-linejoin:miter;stroke-opacity:1"
       d="m 52.833042,16.071675 v 2.94493"
       id="path12831-5"
       inkscape:connector-curvature="0" />
    <path
       transform="translate(27.309734,14.07407)"
       style="display:inline;fill:none;stroke:#000000;stroke-width:0.26458338;stroke-linecap:butt;stroke-linejoin:miter;stroke-miterlimit:4;stroke-dasharray:0.26458337, 0.52916673;stroke-dashoffset:0;stroke-opacity:1"
       d="M 52.83304,17.497329 V -4.2080385"
       id="path20663-3"
       inkscape:connector-curvature="0"
       sodipodi:nodetypes="cc" />
    <path
       transform="translate(27.309734,14.07407)"
       style="display:inline;fill:none;stroke:#000000;stroke-width:0.26458332px;stroke-linecap:butt;stroke-linejoin:miter;stroke-opacity:1"
       d="m 87.003326,16.071628 v 2.94493"
       id="path12831-5-2"
       inkscape:connector-curvature="0" />
    <path
       transform="translate(27.309734,14.07407)"
       style="display:inline;fill:none;stroke:#000000;stroke-width:0.26458332px;stroke-linecap:butt;stroke-linejoin:miter;stroke-opacity:1"
       d="m 121.68825,16.071675 v 2.94493"
       id="path12831-5-2-9"
       inkscape:connector-curvature="0" />
    <path
       transform="translate(27.309734,14.07407)"
       style="display:inline;fill:none;stroke:#000000;stroke-width:0.26458332px;stroke-linecap:butt;stroke-linejoin:miter;stroke-opacity:1"
       d="m 155.33988,16.071676 v 2.94493"
       id="path12831-5-2-2"
       inkscape:connector-curvature="0" />
    <path
       transform="translate(27.309734,14.07407)"
       style="display:inline;fill:none;stroke:#000000;stroke-width:0.26458341;stroke-linecap:butt;stroke-linejoin:miter;stroke-miterlimit:4;stroke-dasharray:0.26458337, 0.52916674;stroke-dashoffset:0;stroke-opacity:1"
       d="m 87.003407,39.45189 -10e-7,-15.170412"
       id="path20663-3-3"
       inkscape:connector-curvature="0"
       sodipodi:nodetypes="cc" />
    <path
       transform="translate(27.309734,14.07407)"
       style="display:inline;fill:none;stroke:#000000;stroke-width:0.26458341;stroke-linecap:butt;stroke-linejoin:miter;stroke-miterlimit:4;stroke-dasharray:0.26458337, 0.52916674;stroke-dashoffset:0;stroke-opacity:1"
       d="M 121.62013,39.249509 V 24.943002"
       id="path20663-3-0"
       inkscape:connector-curvature="0"
       sodipodi:nodetypes="cc" />
    <path
       transform="translate(27.309734,14.07407)"
       style="display:inline;fill:none;stroke:#000000;stroke-width:0.26458341;stroke-linecap:butt;stroke-linejoin:miter;stroke-miterlimit:4;stroke-dasharray:0.26458337, 0.52916674;stroke-dashoffset:0;stroke-opacity:1"
       d="M 155.33988,17.54414 V -4.1612283"
       id="path20663-3-8"
       inkscape:connector-curvature="0"
       sodipodi:nodetypes="cc" />
  </g>
  <g
     inkscape:groupmode="layer"
     id="layer3"
     inkscape:label="Dots"
     style="display:inline"
     transform="translate(-10.799952)">
    <circle
       transform="translate(-3.543191,9.8602684)"
       id="path3342"
       style="fill:#000000;stroke:none;stroke-width:1"
       cx="18.666842"
       cy="17.54414"
       r="0.6328125" />
    <circle
       transform="translate(-3.543191,9.8602684)"
       id="path3342-4"
       style="fill:#000000;stroke:none;stroke-width:1"
       cx="52.833038"
       cy="-4.2080383"
       r="0.6328125" />
    <circle
       transform="translate(-3.543191,9.8602684)"
       id="path3342-4-3"
       style="fill:#000000;stroke:none;stroke-width:1"
       cx="18.666773"
       cy="-4.2080383"
       r="0.6328125" />
    <circle
       id="path3342-4-2"
       style="display:inline;fill:#000000;stroke:none;stroke-width:1"
       cx="83.460213"
       cy="49.312157"
       r="0.6328125" />
    <circle
       id="path3342-4-25"
       style="display:inline;fill:#000000;stroke:none;stroke-width:1"
       cx="118.07694"
       cy="49.109776"
       r="0.6328125" />
    <circle
       id="path3342-4-6"
       style="display:inline;fill:#000000;stroke:none;stroke-width:1"
       cx="151.79669"
       cy="5.6990399"
       r="0.6328125" />
    <circle
       id="path3342-4-4"
       style="display:inline;fill:#000000;stroke:none;stroke-width:1"
       cx="49.289852"
       cy="27.357599"
       r="0.6328125" />
    <circle
       id="path3342-4-7"
       style="display:inline;fill:#000000;stroke:none;stroke-width:1"
       cx="83.460136"
       cy="27.404327"
       r="0.6328125" />
    <circle
       id="path3342-4-37"
       style="display:inline;fill:#000000;stroke:none;stroke-width:1"
       cx="118.07694"
       cy="27.404408"
       r="0.6328125" />
    <circle
       id="path3342-4-378"
       style="display:inline;fill:#000000;stroke:none;stroke-width:1"
       cx="151.79669"
       cy="27.404409"
       r="0.6328125" />
  </g>
  <g
     inkscape:groupmode="layer"
     id="layer4"
     inkscape:label="Reference"
     style="display:none"
     transform="translate(-25.050827,7.4193463)">
    <path
       transform="matrix(0.00617459,0.99998093,0.99999967,-8.0372215e-4,-16.60205,-11.633148)"
       id="path839-6-2"
       style="fill:none;fill-opacity:1;stroke:#000000;stroke-width:0.30000216;stroke-linecap:round;stroke-linejoin:round;stroke-miterlimit:4;stroke-dasharray:none;stroke-dashoffset:0;stroke-opacity:1;marker-end:url(#Arrow2Mend-7);paint-order:normal"
       sodipodi:type="arc"
       sodipodi:cx="34.510071"
       sodipodi:cy="27.08654"
       sodipodi:rx="8.6078758"
       sodipodi:ry="1.9635584"
       sodipodi:start="3.8532276"
       sodipodi:end="1.4930569"
       d="m 27.991368,25.804194 a 8.6078758,1.9635584 0 0 1 10.25128,-0.487005 8.6078758,1.9635584 0 0 1 4.727805,2.131285 8.6078758,1.9635584 0 0 1 -7.791885,1.595694"
       sodipodi:open="true"
       inkscape:transform-center-x="8.7109518"
       inkscape:transform-center-y="-0.37811827" />
  </g>
  <g
     inkscape:groupmode="layer"
     id="layer2"
     inkscape:label="Text"
     style="display:none"
     transform="translate(-14.343143,9.8602684)">
    <text
       xml:space="preserve"
       style="font-style:normal;font-weight:normal;font-size:4.23333311px;line-height:1.25;font-family:sans-serif;letter-spacing:0px;word-spacing:0px;display:inline;fill:#000000;fill-opacity:1;stroke:none;stroke-width:0.26458332"
       x="163.23969"
       y="23.982351"
       id="text908-9-1-7"><tspan
         sodipodi:role="line"
         id="tspan906-0-2-0"
         x="163.23969"
         y="23.982351"
         style="font-size:4.23333311px;stroke-width:0.26458332">$x$</tspan></text>
    <text
       xml:space="preserve"
       style="font-style:normal;font-weight:normal;font-size:4.23333311px;line-height:1.25;font-family:sans-serif;letter-spacing:0px;word-spacing:0px;display:inline;fill:#000000;fill-opacity:1;stroke:none;stroke-width:0.26458332"
       x="13.048782"
       y="48.404633"
       id="text908-9-1-7-3"><tspan
         sodipodi:role="line"
         id="tspan906-0-2-0-3"
         x="13.048782"
         y="48.404633"
         style="font-size:4.23333311px;stroke-width:0.26458332">$0$</tspan></text>
    <text
       xml:space="preserve"
       style="font-style:normal;font-weight:normal;font-size:4.23333311px;line-height:1.25;font-family:sans-serif;letter-spacing:0px;word-spacing:0px;display:inline;fill:#000000;fill-opacity:1;stroke:none;stroke-width:0.26458332"
       x="42.694794"
       y="47.462215"
       id="text908-9-1-7-3-4"><tspan
         sodipodi:role="line"
         id="tspan906-0-2-0-3-8"
         x="42.694794"
         y="47.462215"
         style="font-size:4.23333311px;stroke-width:0.26458332">$\pi/2$</tspan></text>
    <text
       xml:space="preserve"
       style="font-style:normal;font-weight:normal;font-size:4.23333311px;line-height:1.25;font-family:sans-serif;letter-spacing:0px;word-spacing:0px;display:inline;fill:#000000;fill-opacity:1;stroke:none;stroke-width:0.26458332"
       x="110.38453"
       y="47.219387"
       id="text908-9-1-7-3-4-7"><tspan
         sodipodi:role="line"
         id="tspan906-0-2-0-3-8-7"
         x="110.38453"
         y="47.219387"
         style="font-size:4.23333311px;stroke-width:0.26458332">$3\pi/2$</tspan></text>
    <text
       xml:space="preserve"
       style="font-style:normal;font-weight:normal;font-size:4.23333311px;line-height:1.25;font-family:sans-serif;letter-spacing:0px;word-spacing:0px;display:inline;fill:#000000;fill-opacity:1;stroke:none;stroke-width:0.26458332"
       x="80.078712"
       y="47.245338"
       id="text908-9-1-7-3-0"><tspan
         sodipodi:role="line"
         id="tspan906-0-2-0-3-0"
         x="80.078712"
         y="47.245338"
         style="font-size:4.23333311px;stroke-width:0.26458332">$\pi$</tspan></text>
    <text
       xml:space="preserve"
       style="font-style:normal;font-weight:normal;font-size:4.23333311px;line-height:1.25;font-family:sans-serif;letter-spacing:0px;word-spacing:0px;display:inline;fill:#000000;fill-opacity:1;stroke:none;stroke-width:0.26458332"
       x="14.443921"
       y="-12.113417"
       id="text908-9-1-7-5"><tspan
         sodipodi:role="line"
         id="tspan906-0-2-0-6"
         x="14.443921"
         y="-12.113417"
         style="font-size:4.23333311px;stroke-width:0.26458332">$y$</tspan></text>
    <text
       xml:space="preserve"
       style="font-style:normal;font-weight:normal;font-size:4.23333311px;line-height:1.25;font-family:sans-serif;letter-spacing:0px;word-spacing:0px;display:inline;fill:#000000;fill-opacity:1;stroke:none;stroke-width:0.26458332"
       x="149.45073"
       y="47.63768"
       id="text908-9-1-7-3-0-3"><tspan
         sodipodi:role="line"
         id="tspan906-0-2-0-3-0-4"
         x="149.45073"
         y="47.63768"
         style="font-size:4.23333311px;stroke-width:0.26458332">$2\pi$</tspan></text>
    <text
       xml:space="preserve"
       style="font-style:normal;font-weight:normal;font-size:4.23333311px;line-height:1.25;font-family:sans-serif;letter-spacing:0px;word-spacing:0px;display:inline;fill:#000000;fill-opacity:1;stroke:none;stroke-width:0.26458332"
       x="74.21904"
       y="-0.66121334"
       id="text908-9-1-7-5-4"><tspan
         sodipodi:role="line"
         id="tspan906-0-2-0-6-3"
         x="74.21904"
         y="-0.66121334"
         style="font-size:4.23333311px;stroke-width:0.26458332">$\sin(x)$</tspan></text>
    <text
       xml:space="preserve"
       style="font-style:normal;font-weight:normal;font-size:4.23333311px;line-height:1.25;font-family:sans-serif;letter-spacing:0px;word-spacing:0px;display:inline;fill:#000000;fill-opacity:1;stroke:none;stroke-width:0.26458332"
       x="116.55268"
       y="-0.32960126"
       id="text908-9-1-7-5-4-7"><tspan
         sodipodi:role="line"
         id="tspan906-0-2-0-6-3-9"
         x="116.55268"
         y="-0.32960126"
         style="font-size:4.23333311px;stroke-width:0.26458332">$\cos(x)$</tspan></text>
  </g>
  <g
     rendltx:math="False"
     rendltx:newline="False"
     rendltx:fontsize="12.0"
     rendltx:depth="0.0"
     rendltx:scale="1.0"
     rendltx:packages="amsmath,amssymb"
     rendltx:preamble=""
     id="ltx-render-layer"
     inkscape:groupmode="layer"
     inkscape:label="Rendered Latex"
     transform="translate(-14.343143,9.8602684)"
     style="display:inline">
    <g
       id="lx-text908-9-1-7"
       transform="matrix(0.352778,0,0,0.352778,162.65233,18.45089)">
      <defs
         id="defs4859">
        <g
           id="g4857">
          <symbol
             id="lx-text908-9-1-7-glyph0-0"
             overflow="visible">
            <path
               id="path4851"
               d=""
               style="stroke:none;" />
          </symbol>
          <symbol
             id="lx-text908-9-1-7-glyph0-1"
             overflow="visible">
            <path
               id="path4854"
               d="M 5.671875 -4.875 C 5.28125 -4.8125 5.140625 -4.515625 5.140625 -4.296875 C 5.140625 -4 5.359375 -3.90625 5.53125 -3.90625 C 5.890625 -3.90625 6.140625 -4.21875 6.140625 -4.546875 C 6.140625 -5.046875 5.5625 -5.265625 5.0625 -5.265625 C 4.34375 -5.265625 3.9375 -4.546875 3.828125 -4.328125 C 3.546875 -5.21875 2.8125 -5.265625 2.59375 -5.265625 C 1.375 -5.265625 0.734375 -3.703125 0.734375 -3.4375 C 0.734375 -3.390625 0.78125 -3.328125 0.859375 -3.328125 C 0.953125 -3.328125 0.984375 -3.40625 1 -3.453125 C 1.40625 -4.78125 2.21875 -5.03125 2.5625 -5.03125 C 3.09375 -5.03125 3.203125 -4.53125 3.203125 -4.25 C 3.203125 -3.984375 3.125 -3.703125 2.984375 -3.125 L 2.578125 -1.5 C 2.40625 -0.78125 2.0625 -0.125 1.421875 -0.125 C 1.359375 -0.125 1.0625 -0.125 0.8125 -0.28125 C 1.25 -0.359375 1.34375 -0.71875 1.34375 -0.859375 C 1.34375 -1.09375 1.15625 -1.25 0.9375 -1.25 C 0.640625 -1.25 0.328125 -0.984375 0.328125 -0.609375 C 0.328125 -0.109375 0.890625 0.125 1.40625 0.125 C 1.984375 0.125 2.390625 -0.328125 2.640625 -0.828125 C 2.828125 -0.125 3.4375 0.125 3.875 0.125 C 5.09375 0.125 5.734375 -1.453125 5.734375 -1.703125 C 5.734375 -1.765625 5.6875 -1.8125 5.625 -1.8125 C 5.515625 -1.8125 5.5 -1.75 5.46875 -1.65625 C 5.140625 -0.609375 4.453125 -0.125 3.90625 -0.125 C 3.484375 -0.125 3.265625 -0.4375 3.265625 -0.921875 C 3.265625 -1.1875 3.3125 -1.375 3.5 -2.15625 L 3.921875 -3.796875 C 4.09375 -4.5 4.5 -5.03125 5.0625 -5.03125 C 5.078125 -5.03125 5.421875 -5.03125 5.671875 -4.875 Z M 5.671875 -4.875 "
               style="stroke:none;" />
          </symbol>
        </g>
      </defs>
      <g
         id="lx-text908-9-1-7-surface1">
        <g
           id="g4863"
           style="fill:rgb(0%,0%,0%);fill-opacity:1;">
          <use
             id="use4861"
             y="0.0"
             x="0.0"
             xlink:href="#lx-text908-9-1-7-glyph0-1" />
        </g>
      </g>
    </g>
    <g
       id="lx-text908-9-1-7-3"
       transform="matrix(0.352778,0,0,0.352778,15.461466,22.498002)">
      <defs
         id="defs4875">
        <g
           id="g4873">
          <symbol
             id="lx-text908-9-1-7-3-glyph0-0"
             overflow="visible">
            <path
               id="path4867"
               d=""
               style="stroke:none;" />
          </symbol>
          <symbol
             id="lx-text908-9-1-7-3-glyph0-1"
             overflow="visible">
            <path
               id="path4870"
               d="M 5.359375 -3.828125 C 5.359375 -4.8125 5.296875 -5.78125 4.859375 -6.6875 C 4.375 -7.6875 3.515625 -7.953125 2.921875 -7.953125 C 2.234375 -7.953125 1.390625 -7.609375 0.9375 -6.609375 C 0.609375 -5.859375 0.484375 -5.109375 0.484375 -3.828125 C 0.484375 -2.671875 0.578125 -1.796875 1 -0.9375 C 1.46875 -0.03125 2.296875 0.25 2.921875 0.25 C 3.953125 0.25 4.546875 -0.375 4.90625 -1.0625 C 5.328125 -1.953125 5.359375 -3.125 5.359375 -3.828125 Z M 2.921875 0.015625 C 2.53125 0.015625 1.75 -0.203125 1.53125 -1.5 C 1.40625 -2.21875 1.40625 -3.125 1.40625 -3.96875 C 1.40625 -4.953125 1.40625 -5.828125 1.59375 -6.53125 C 1.796875 -7.34375 2.40625 -7.703125 2.921875 -7.703125 C 3.375 -7.703125 4.0625 -7.4375 4.296875 -6.40625 C 4.453125 -5.71875 4.453125 -4.78125 4.453125 -3.96875 C 4.453125 -3.171875 4.453125 -2.265625 4.3125 -1.53125 C 4.09375 -0.21875 3.328125 0.015625 2.921875 0.015625 Z M 2.921875 0.015625 "
               style="stroke:none;" />
          </symbol>
        </g>
      </defs>
      <g
         id="lx-text908-9-1-7-3-surface1">
        <g
           id="g4879"
           style="fill:rgb(0%,0%,0%);fill-opacity:1;">
          <use
             id="use4877"
             y="0.0"
             x="0.0"
             xlink:href="#lx-text908-9-1-7-3-glyph0-1" />
        </g>
      </g>
    </g>
    <g
       id="lx-text908-9-1-7-3-4"
       transform="matrix(0.352778,0,0,0.352778,47.059942,23.253167)">
      <defs
         id="defs4900">
        <g
           id="g4898">
          <symbol
             id="lx-text908-9-1-7-3-4-glyph0-0"
             overflow="visible">
            <path
               id="path4883"
               d=""
               style="stroke:none;" />
          </symbol>
          <symbol
             id="lx-text908-9-1-7-3-4-glyph0-1"
             overflow="visible">
            <path
               id="path4886"
               d="M 3.09375 -4.5 L 4.453125 -4.5 C 4.125 -3.171875 3.921875 -2.296875 3.921875 -1.34375 C 3.921875 -1.171875 3.921875 0.125 4.40625 0.125 C 4.65625 0.125 4.875 -0.109375 4.875 -0.3125 C 4.875 -0.375 4.875 -0.390625 4.796875 -0.578125 C 4.46875 -1.40625 4.46875 -2.421875 4.46875 -2.515625 C 4.46875 -2.578125 4.46875 -3.4375 4.71875 -4.5 L 6.0625 -4.5 C 6.21875 -4.5 6.609375 -4.5 6.609375 -4.890625 C 6.609375 -5.15625 6.390625 -5.15625 6.171875 -5.15625 L 2.234375 -5.15625 C 1.953125 -5.15625 1.546875 -5.15625 1 -4.5625 C 0.6875 -4.21875 0.3125 -3.578125 0.3125 -3.515625 C 0.3125 -3.4375 0.375 -3.421875 0.4375 -3.421875 C 0.53125 -3.421875 0.53125 -3.453125 0.59375 -3.53125 C 1.21875 -4.5 1.84375 -4.5 2.140625 -4.5 L 2.828125 -4.5 C 2.5625 -3.609375 2.265625 -2.5625 1.28125 -0.484375 C 1.1875 -0.28125 1.1875 -0.265625 1.1875 -0.1875 C 1.1875 0.0625 1.40625 0.125 1.5 0.125 C 1.859375 0.125 1.953125 -0.1875 2.09375 -0.6875 C 2.28125 -1.296875 2.28125 -1.328125 2.40625 -1.8125 Z M 3.09375 -4.5 "
               style="stroke:none;" />
          </symbol>
          <symbol
             id="lx-text908-9-1-7-3-4-glyph0-2"
             overflow="visible">
            <path
               id="path4889"
               d="M 5.125 -8.515625 C 5.125 -8.53125 5.203125 -8.71875 5.203125 -8.734375 C 5.203125 -8.875 5.078125 -8.96875 4.984375 -8.96875 C 4.921875 -8.96875 4.8125 -8.96875 4.71875 -8.703125 L 0.71875 2.546875 C 0.71875 2.5625 0.640625 2.734375 0.640625 2.765625 C 0.640625 2.90625 0.765625 2.984375 0.859375 2.984375 C 0.9375 2.984375 1.046875 2.96875 1.125 2.71875 Z M 5.125 -8.515625 "
               style="stroke:none;" />
          </symbol>
          <symbol
             id="lx-text908-9-1-7-3-4-glyph1-0"
             overflow="visible">
            <path
               id="path4892"
               d=""
               style="stroke:none;" />
          </symbol>
          <symbol
             id="lx-text908-9-1-7-3-4-glyph1-1"
             overflow="visible">
            <path
               id="path4895"
               d="M 5.265625 -2.015625 L 5 -2.015625 C 4.953125 -1.8125 4.859375 -1.140625 4.75 -0.953125 C 4.65625 -0.84375 3.984375 -0.84375 3.625 -0.84375 L 1.40625 -0.84375 C 1.734375 -1.125 2.46875 -1.890625 2.765625 -2.171875 C 4.59375 -3.84375 5.265625 -4.46875 5.265625 -5.65625 C 5.265625 -7.03125 4.171875 -7.953125 2.78125 -7.953125 C 1.40625 -7.953125 0.578125 -6.765625 0.578125 -5.734375 C 0.578125 -5.125 1.109375 -5.125 1.140625 -5.125 C 1.40625 -5.125 1.703125 -5.3125 1.703125 -5.6875 C 1.703125 -6.03125 1.484375 -6.25 1.140625 -6.25 C 1.046875 -6.25 1.015625 -6.25 0.984375 -6.234375 C 1.203125 -7.046875 1.859375 -7.609375 2.625 -7.609375 C 3.640625 -7.609375 4.265625 -6.75 4.265625 -5.65625 C 4.265625 -4.640625 3.6875 -3.75 3 -2.984375 L 0.578125 -0.28125 L 0.578125 0 L 4.953125 0 Z M 5.265625 -2.015625 "
               style="stroke:none;" />
          </symbol>
        </g>
      </defs>
      <g
         id="lx-text908-9-1-7-3-4-surface1">
        <g
           id="g4904"
           style="fill:rgb(0%,0%,0%);fill-opacity:1;">
          <use
             id="use4902"
             y="0.0"
             x="0.0"
             xlink:href="#lx-text908-9-1-7-3-4-glyph0-1" />
        </g>
        <g
           id="g4908"
           style="fill:rgb(0%,0%,0%);fill-opacity:1;">
          <use
             id="use4906"
             y="0.0"
             x="7.070305"
             xlink:href="#lx-text908-9-1-7-3-4-glyph0-2" />
        </g>
        <g
           id="g4912"
           style="fill:rgb(0%,0%,0%);fill-opacity:1;">
          <use
             id="use4910"
             y="0.0"
             x="12.922"
             xlink:href="#lx-text908-9-1-7-3-4-glyph1-1" />
        </g>
      </g>
    </g>
    <g
       id="lx-text908-9-1-7-3-4-7"
       transform="matrix(0.352778,0,0,0.352778,120.00908,23.253167)">
      <defs
         id="defs4936">
        <g
           id="g4934">
          <symbol
             id="lx-text908-9-1-7-3-4-7-glyph0-0"
             overflow="visible">
            <path
               id="path4916"
               d=""
               style="stroke:none;" />
          </symbol>
          <symbol
             id="lx-text908-9-1-7-3-4-7-glyph0-1"
             overflow="visible">
            <path
               id="path4919"
               d="M 2.203125 -4.296875 C 2 -4.28125 1.953125 -4.265625 1.953125 -4.15625 C 1.953125 -4.046875 2.015625 -4.046875 2.21875 -4.046875 L 2.765625 -4.046875 C 3.796875 -4.046875 4.25 -3.203125 4.25 -2.0625 C 4.25 -0.484375 3.4375 -0.078125 2.84375 -0.078125 C 2.265625 -0.078125 1.296875 -0.34375 0.9375 -1.140625 C 1.328125 -1.078125 1.671875 -1.296875 1.671875 -1.71875 C 1.671875 -2.0625 1.421875 -2.3125 1.09375 -2.3125 C 0.796875 -2.3125 0.484375 -2.140625 0.484375 -1.6875 C 0.484375 -0.625 1.546875 0.25 2.875 0.25 C 4.296875 0.25 5.359375 -0.84375 5.359375 -2.046875 C 5.359375 -3.140625 4.46875 -4 3.328125 -4.203125 C 4.359375 -4.5 5.03125 -5.375 5.03125 -6.3125 C 5.03125 -7.25 4.046875 -7.953125 2.890625 -7.953125 C 1.703125 -7.953125 0.8125 -7.21875 0.8125 -6.34375 C 0.8125 -5.875 1.1875 -5.765625 1.359375 -5.765625 C 1.609375 -5.765625 1.90625 -5.953125 1.90625 -6.3125 C 1.90625 -6.6875 1.609375 -6.859375 1.34375 -6.859375 C 1.28125 -6.859375 1.25 -6.859375 1.21875 -6.84375 C 1.671875 -7.65625 2.796875 -7.65625 2.859375 -7.65625 C 3.25 -7.65625 4.03125 -7.484375 4.03125 -6.3125 C 4.03125 -6.078125 4 -5.421875 3.640625 -4.90625 C 3.28125 -4.375 2.875 -4.34375 2.5625 -4.328125 Z M 2.203125 -4.296875 "
               style="stroke:none;" />
          </symbol>
          <symbol
             id="lx-text908-9-1-7-3-4-7-glyph0-2"
             overflow="visible">
            <path
               id="path4922"
               d="M 5.265625 -2.015625 L 5 -2.015625 C 4.953125 -1.8125 4.859375 -1.140625 4.75 -0.953125 C 4.65625 -0.84375 3.984375 -0.84375 3.625 -0.84375 L 1.40625 -0.84375 C 1.734375 -1.125 2.46875 -1.890625 2.765625 -2.171875 C 4.59375 -3.84375 5.265625 -4.46875 5.265625 -5.65625 C 5.265625 -7.03125 4.171875 -7.953125 2.78125 -7.953125 C 1.40625 -7.953125 0.578125 -6.765625 0.578125 -5.734375 C 0.578125 -5.125 1.109375 -5.125 1.140625 -5.125 C 1.40625 -5.125 1.703125 -5.3125 1.703125 -5.6875 C 1.703125 -6.03125 1.484375 -6.25 1.140625 -6.25 C 1.046875 -6.25 1.015625 -6.25 0.984375 -6.234375 C 1.203125 -7.046875 1.859375 -7.609375 2.625 -7.609375 C 3.640625 -7.609375 4.265625 -6.75 4.265625 -5.65625 C 4.265625 -4.640625 3.6875 -3.75 3 -2.984375 L 0.578125 -0.28125 L 0.578125 0 L 4.953125 0 Z M 5.265625 -2.015625 "
               style="stroke:none;" />
          </symbol>
          <symbol
             id="lx-text908-9-1-7-3-4-7-glyph1-0"
             overflow="visible">
            <path
               id="path4925"
               d=""
               style="stroke:none;" />
          </symbol>
          <symbol
             id="lx-text908-9-1-7-3-4-7-glyph1-1"
             overflow="visible">
            <path
               id="path4928"
               d="M 3.09375 -4.5 L 4.453125 -4.5 C 4.125 -3.171875 3.921875 -2.296875 3.921875 -1.34375 C 3.921875 -1.171875 3.921875 0.125 4.40625 0.125 C 4.65625 0.125 4.875 -0.109375 4.875 -0.3125 C 4.875 -0.375 4.875 -0.390625 4.796875 -0.578125 C 4.46875 -1.40625 4.46875 -2.421875 4.46875 -2.515625 C 4.46875 -2.578125 4.46875 -3.4375 4.71875 -4.5 L 6.0625 -4.5 C 6.21875 -4.5 6.609375 -4.5 6.609375 -4.890625 C 6.609375 -5.15625 6.390625 -5.15625 6.171875 -5.15625 L 2.234375 -5.15625 C 1.953125 -5.15625 1.546875 -5.15625 1 -4.5625 C 0.6875 -4.21875 0.3125 -3.578125 0.3125 -3.515625 C 0.3125 -3.4375 0.375 -3.421875 0.4375 -3.421875 C 0.53125 -3.421875 0.53125 -3.453125 0.59375 -3.53125 C 1.21875 -4.5 1.84375 -4.5 2.140625 -4.5 L 2.828125 -4.5 C 2.5625 -3.609375 2.265625 -2.5625 1.28125 -0.484375 C 1.1875 -0.28125 1.1875 -0.265625 1.1875 -0.1875 C 1.1875 0.0625 1.40625 0.125 1.5 0.125 C 1.859375 0.125 1.953125 -0.1875 2.09375 -0.6875 C 2.28125 -1.296875 2.28125 -1.328125 2.40625 -1.8125 Z M 3.09375 -4.5 "
               style="stroke:none;" />
          </symbol>
          <symbol
             id="lx-text908-9-1-7-3-4-7-glyph1-2"
             overflow="visible">
            <path
               id="path4931"
               d="M 5.125 -8.515625 C 5.125 -8.53125 5.203125 -8.71875 5.203125 -8.734375 C 5.203125 -8.875 5.078125 -8.96875 4.984375 -8.96875 C 4.921875 -8.96875 4.8125 -8.96875 4.71875 -8.703125 L 0.71875 2.546875 C 0.71875 2.5625 0.640625 2.734375 0.640625 2.765625 C 0.640625 2.90625 0.765625 2.984375 0.859375 2.984375 C 0.9375 2.984375 1.046875 2.96875 1.125 2.71875 Z M 5.125 -8.515625 "
               style="stroke:none;" />
          </symbol>
        </g>
      </defs>
      <g
         id="lx-text908-9-1-7-3-4-7-surface1">
        <g
           id="g4940"
           style="fill:rgb(0%,0%,0%);fill-opacity:1;">
          <use
             id="use4938"
             y="0.0"
             x="0.0"
             xlink:href="#lx-text908-9-1-7-3-4-7-glyph0-1" />
        </g>
        <g
           id="g4944"
           style="fill:rgb(0%,0%,0%);fill-opacity:1;">
          <use
             id="use4942"
             y="0.0"
             x="5.853"
             xlink:href="#lx-text908-9-1-7-3-4-7-glyph1-1" />
        </g>
        <g
           id="g4948"
           style="fill:rgb(0%,0%,0%);fill-opacity:1;">
          <use
             id="use4946"
             y="0.0"
             x="12.923305"
             xlink:href="#lx-text908-9-1-7-3-4-7-glyph1-2" />
        </g>
        <g
           id="g4952"
           style="fill:rgb(0%,0%,0%);fill-opacity:1;">
          <use
             id="use4950"
             y="0.0"
             x="18.775"
             xlink:href="#lx-text908-9-1-7-3-4-7-glyph0-2" />
        </g>
      </g>
    </g>
    <g
       id="lx-text908-9-1-7-3-0"
       transform="matrix(0.352778,0,0,0.352778,85.578967,23.085046)">
      <defs
         id="defs4964">
        <g
           id="g4962">
          <symbol
             id="lx-text908-9-1-7-3-0-glyph0-0"
             overflow="visible">
            <path
               id="path4956"
               d=""
               style="stroke:none;" />
          </symbol>
          <symbol
             id="lx-text908-9-1-7-3-0-glyph0-1"
             overflow="visible">
            <path
               id="path4959"
               d="M 3.09375 -4.5 L 4.453125 -4.5 C 4.125 -3.171875 3.921875 -2.296875 3.921875 -1.34375 C 3.921875 -1.171875 3.921875 0.125 4.40625 0.125 C 4.65625 0.125 4.875 -0.109375 4.875 -0.3125 C 4.875 -0.375 4.875 -0.390625 4.796875 -0.578125 C 4.46875 -1.40625 4.46875 -2.421875 4.46875 -2.515625 C 4.46875 -2.578125 4.46875 -3.4375 4.71875 -4.5 L 6.0625 -4.5 C 6.21875 -4.5 6.609375 -4.5 6.609375 -4.890625 C 6.609375 -5.15625 6.390625 -5.15625 6.171875 -5.15625 L 2.234375 -5.15625 C 1.953125 -5.15625 1.546875 -5.15625 1 -4.5625 C 0.6875 -4.21875 0.3125 -3.578125 0.3125 -3.515625 C 0.3125 -3.4375 0.375 -3.421875 0.4375 -3.421875 C 0.53125 -3.421875 0.53125 -3.453125 0.59375 -3.53125 C 1.21875 -4.5 1.84375 -4.5 2.140625 -4.5 L 2.828125 -4.5 C 2.5625 -3.609375 2.265625 -2.5625 1.28125 -0.484375 C 1.1875 -0.28125 1.1875 -0.265625 1.1875 -0.1875 C 1.1875 0.0625 1.40625 0.125 1.5 0.125 C 1.859375 0.125 1.953125 -0.1875 2.09375 -0.6875 C 2.28125 -1.296875 2.28125 -1.328125 2.40625 -1.8125 Z M 3.09375 -4.5 "
               style="stroke:none;" />
          </symbol>
        </g>
      </defs>
      <g
         id="lx-text908-9-1-7-3-0-surface1">
        <g
           id="g4968"
           style="fill:rgb(0%,0%,0%);fill-opacity:1;">
          <use
             id="use4966"
             y="0.0"
             x="0.0"
             xlink:href="#lx-text908-9-1-7-3-0-glyph0-1" />
        </g>
      </g>
    </g>
    <g
       id="lx-text908-9-1-7-5"
       transform="matrix(0.352778,0,0,0.352778,14.459811,-7.6195518)">
      <defs
         id="defs4980">
        <g
           id="g4978">
          <symbol
             id="lx-text908-9-1-7-5-glyph0-0"
             overflow="visible">
            <path
               id="path4972"
               d=""
               style="stroke:none;" />
          </symbol>
          <symbol
             id="lx-text908-9-1-7-5-glyph0-1"
             overflow="visible">
            <path
               id="path4975"
               d="M 3.140625 1.34375 C 2.828125 1.796875 2.359375 2.203125 1.765625 2.203125 C 1.625 2.203125 1.046875 2.171875 0.875 1.625 C 0.90625 1.640625 0.96875 1.640625 0.984375 1.640625 C 1.34375 1.640625 1.59375 1.328125 1.59375 1.046875 C 1.59375 0.78125 1.359375 0.6875 1.1875 0.6875 C 0.984375 0.6875 0.578125 0.828125 0.578125 1.40625 C 0.578125 2.015625 1.09375 2.4375 1.765625 2.4375 C 2.96875 2.4375 4.171875 1.34375 4.5 0.015625 L 5.671875 -4.65625 C 5.6875 -4.703125 5.71875 -4.78125 5.71875 -4.859375 C 5.71875 -5.03125 5.5625 -5.15625 5.390625 -5.15625 C 5.28125 -5.15625 5.03125 -5.109375 4.9375 -4.75 L 4.046875 -1.234375 C 4 -1.015625 4 -0.984375 3.890625 -0.859375 C 3.65625 -0.53125 3.265625 -0.125 2.6875 -0.125 C 2.015625 -0.125 1.953125 -0.78125 1.953125 -1.09375 C 1.953125 -1.78125 2.28125 -2.703125 2.609375 -3.5625 C 2.734375 -3.90625 2.8125 -4.078125 2.8125 -4.3125 C 2.8125 -4.8125 2.453125 -5.265625 1.859375 -5.265625 C 0.765625 -5.265625 0.328125 -3.53125 0.328125 -3.4375 C 0.328125 -3.390625 0.375 -3.328125 0.453125 -3.328125 C 0.5625 -3.328125 0.578125 -3.375 0.625 -3.546875 C 0.90625 -4.546875 1.359375 -5.03125 1.828125 -5.03125 C 1.9375 -5.03125 2.140625 -5.03125 2.140625 -4.640625 C 2.140625 -4.328125 2.015625 -3.984375 1.828125 -3.53125 C 1.25 -1.953125 1.25 -1.5625 1.25 -1.28125 C 1.25 -0.140625 2.0625 0.125 2.65625 0.125 C 3 0.125 3.4375 0.015625 3.84375 -0.4375 L 3.859375 -0.421875 C 3.6875 0.28125 3.5625 0.75 3.140625 1.34375 Z M 3.140625 1.34375 "
               style="stroke:none;" />
          </symbol>
        </g>
      </defs>
      <g
         id="lx-text908-9-1-7-5-surface1">
        <g
           id="g4984"
           style="fill:rgb(0%,0%,0%);fill-opacity:1;">
          <use
             id="use4982"
             y="0.0"
             x="0.0"
             xlink:href="#lx-text908-9-1-7-5-glyph0-1" />
        </g>
      </g>
    </g>
    <g
       id="lx-text908-9-1-7-3-0-3"
       transform="matrix(0.352778,0,0,0.352778,153.74905,23.578384)">
      <defs
         id="defs5002">
        <g
           id="g5000">
          <symbol
             id="lx-text908-9-1-7-3-0-3-glyph0-0"
             overflow="visible">
            <path
               id="path4988"
               d=""
               style="stroke:none;" />
          </symbol>
          <symbol
             id="lx-text908-9-1-7-3-0-3-glyph0-1"
             overflow="visible">
            <path
               id="path4991"
               d="M 5.265625 -2.015625 L 5 -2.015625 C 4.953125 -1.8125 4.859375 -1.140625 4.75 -0.953125 C 4.65625 -0.84375 3.984375 -0.84375 3.625 -0.84375 L 1.40625 -0.84375 C 1.734375 -1.125 2.46875 -1.890625 2.765625 -2.171875 C 4.59375 -3.84375 5.265625 -4.46875 5.265625 -5.65625 C 5.265625 -7.03125 4.171875 -7.953125 2.78125 -7.953125 C 1.40625 -7.953125 0.578125 -6.765625 0.578125 -5.734375 C 0.578125 -5.125 1.109375 -5.125 1.140625 -5.125 C 1.40625 -5.125 1.703125 -5.3125 1.703125 -5.6875 C 1.703125 -6.03125 1.484375 -6.25 1.140625 -6.25 C 1.046875 -6.25 1.015625 -6.25 0.984375 -6.234375 C 1.203125 -7.046875 1.859375 -7.609375 2.625 -7.609375 C 3.640625 -7.609375 4.265625 -6.75 4.265625 -5.65625 C 4.265625 -4.640625 3.6875 -3.75 3 -2.984375 L 0.578125 -0.28125 L 0.578125 0 L 4.953125 0 Z M 5.265625 -2.015625 "
               style="stroke:none;" />
          </symbol>
          <symbol
             id="lx-text908-9-1-7-3-0-3-glyph1-0"
             overflow="visible">
            <path
               id="path4994"
               d=""
               style="stroke:none;" />
          </symbol>
          <symbol
             id="lx-text908-9-1-7-3-0-3-glyph1-1"
             overflow="visible">
            <path
               id="path4997"
               d="M 3.09375 -4.5 L 4.453125 -4.5 C 4.125 -3.171875 3.921875 -2.296875 3.921875 -1.34375 C 3.921875 -1.171875 3.921875 0.125 4.40625 0.125 C 4.65625 0.125 4.875 -0.109375 4.875 -0.3125 C 4.875 -0.375 4.875 -0.390625 4.796875 -0.578125 C 4.46875 -1.40625 4.46875 -2.421875 4.46875 -2.515625 C 4.46875 -2.578125 4.46875 -3.4375 4.71875 -4.5 L 6.0625 -4.5 C 6.21875 -4.5 6.609375 -4.5 6.609375 -4.890625 C 6.609375 -5.15625 6.390625 -5.15625 6.171875 -5.15625 L 2.234375 -5.15625 C 1.953125 -5.15625 1.546875 -5.15625 1 -4.5625 C 0.6875 -4.21875 0.3125 -3.578125 0.3125 -3.515625 C 0.3125 -3.4375 0.375 -3.421875 0.4375 -3.421875 C 0.53125 -3.421875 0.53125 -3.453125 0.59375 -3.53125 C 1.21875 -4.5 1.84375 -4.5 2.140625 -4.5 L 2.828125 -4.5 C 2.5625 -3.609375 2.265625 -2.5625 1.28125 -0.484375 C 1.1875 -0.28125 1.1875 -0.265625 1.1875 -0.1875 C 1.1875 0.0625 1.40625 0.125 1.5 0.125 C 1.859375 0.125 1.953125 -0.1875 2.09375 -0.6875 C 2.28125 -1.296875 2.28125 -1.328125 2.40625 -1.8125 Z M 3.09375 -4.5 "
               style="stroke:none;" />
          </symbol>
        </g>
      </defs>
      <g
         id="lx-text908-9-1-7-3-0-3-surface1">
        <g
           id="g5006"
           style="fill:rgb(0%,0%,0%);fill-opacity:1;">
          <use
             id="use5004"
             y="0.0"
             x="0.0"
             xlink:href="#lx-text908-9-1-7-3-0-3-glyph0-1" />
        </g>
        <g
           id="g5010"
           style="fill:rgb(0%,0%,0%);fill-opacity:1;">
          <use
             id="use5008"
             y="0.0"
             x="5.853"
             xlink:href="#lx-text908-9-1-7-3-0-3-glyph1-1" />
        </g>
      </g>
    </g>
    <g
       id="lx-text908-9-1-7-5-4"
       transform="matrix(0.352778,0,0,0.352778,79.109404,0.82584723)">
      <defs
         id="defs5040">
        <g
           id="g5038">
          <symbol
             id="lx-text908-9-1-7-5-4-glyph0-0"
             overflow="visible"
             style="overflow:visible">
            <path
               id="path5014"
               d=""
               style="stroke:none"
               inkscape:connector-curvature="0" />
          </symbol>
          <symbol
             id="lx-text908-9-1-7-5-4-glyph0-1"
             overflow="visible"
             style="overflow:visible">
            <path
               id="path5017"
               d="m 3.921875,-5.0625 c 0,-0.203125 0,-0.265625 -0.125,-0.265625 -0.09375,0 -0.3125,0.265625 -0.40625,0.375 -0.359375,-0.3125 -0.734375,-0.375 -1.125,-0.375 -1.4375,0 -1.875,0.78125 -1.875,1.4375 0,0.140625 0,0.5625 0.453125,0.96875 0.390625,0.34375 0.796875,0.421875 1.34375,0.53125 0.65625,0.125 0.8125,0.171875 1.109375,0.40625 0.21875,0.171875 0.375,0.4375 0.375,0.78125 C 3.671875,-0.6875 3.375,-0.125 2.3125,-0.125 1.53125,-0.125 0.953125,-0.578125 0.6875,-1.765625 0.640625,-1.984375 0.640625,-2 0.640625,-2.015625 0.609375,-2.0625 0.5625,-2.0625 0.53125,-2.0625 0.390625,-2.0625 0.390625,-2 0.390625,-1.78125 v 1.625 c 0,0.21875 0,0.28125 0.125,0.28125 0.0625,0 0.0625,-0.015625 0.265625,-0.265625 C 0.84375,-0.234375 0.84375,-0.25 1.03125,-0.4375 1.484375,0.125 2.125,0.125 2.328125,0.125 c 1.25,0 1.875,-0.703125 1.875,-1.640625 0,-0.640625 -0.390625,-1.03125 -0.5,-1.140625 -0.421875,-0.375 -0.75,-0.4375 -1.546875,-0.578125 -0.34375,-0.078125 -1.21875,-0.25 -1.21875,-0.96875 0,-0.359375 0.25,-0.90625 1.328125,-0.90625 1.296875,0 1.375,1.109375 1.390625,1.46875 0.015625,0.109375 0.09375,0.109375 0.140625,0.109375 0.125,0 0.125,-0.0625 0.125,-0.28125 z m 0,0"
               style="stroke:none"
               inkscape:connector-curvature="0" />
          </symbol>
          <symbol
             id="lx-text908-9-1-7-5-4-glyph0-2"
             overflow="visible"
             style="overflow:visible">
            <path
               id="path5020"
               d="m 2.078125,-7.359375 c 0,-0.3125 -0.25,-0.59375 -0.578125,-0.59375 -0.3125,0 -0.578125,0.25 -0.578125,0.578125 0,0.359375 0.28125,0.578125 0.578125,0.578125 0.359375,0 0.578125,-0.296875 0.578125,-0.5625 z M 0.4375,-5.140625 v 0.34375 c 0.75,0 0.859375,0.078125 0.859375,0.65625 v 3.25 c 0,0.546875 -0.125,0.546875 -0.90625,0.546875 V 0 c 0.34375,-0.03125 0.90625,-0.03125 1.265625,-0.03125 0.125,0 0.8125,0 1.21875,0.03125 v -0.34375 c -0.765625,0 -0.8125,-0.0625 -0.8125,-0.53125 v -4.390625 z m 0,0"
               style="stroke:none"
               inkscape:connector-curvature="0" />
          </symbol>
          <symbol
             id="lx-text908-9-1-7-5-4-glyph0-3"
             overflow="visible"
             style="overflow:visible">
            <path
               id="path5023"
               d="m 5.3125,-2.90625 c 0,-1.109375 0,-1.4375 -0.265625,-1.828125 -0.34375,-0.46875 -0.90625,-0.53125 -1.3125,-0.53125 -1.171875,0 -1.625,0.984375 -1.71875,1.21875 v -1.21875 l -1.640625,0.125 v 0.34375 c 0.8125,0 0.921875,0.09375 0.921875,0.671875 v 3.234375 c 0,0.546875 -0.140625,0.546875 -0.921875,0.546875 V 0 c 0.3125,-0.03125 0.96875,-0.03125 1.296875,-0.03125 0.34375,0 1,0 1.296875,0.03125 v -0.34375 c -0.75,0 -0.90625,0 -0.90625,-0.546875 v -2.21875 c 0,-1.25 0.828125,-1.921875 1.578125,-1.921875 0.734375,0 0.90625,0.609375 0.90625,1.34375 v 2.796875 c 0,0.546875 -0.140625,0.546875 -0.90625,0.546875 V 0 c 0.296875,-0.03125 0.953125,-0.03125 1.28125,-0.03125 0.34375,0 1,0 1.3125,0.03125 v -0.34375 c -0.609375,0 -0.90625,0 -0.921875,-0.359375 z m 0,0"
               style="stroke:none"
               inkscape:connector-curvature="0" />
          </symbol>
          <symbol
             id="lx-text908-9-1-7-5-4-glyph0-4"
             overflow="visible"
             style="overflow:visible">
            <path
               id="path5026"
               d="m 3.890625,2.90625 c 0,-0.03125 0,-0.0625 -0.203125,-0.265625 C 2.484375,1.4375 1.8125,-0.53125 1.8125,-2.96875 c 0,-2.328125 0.5625,-4.328125 1.953125,-5.734375 0.125,-0.109375 0.125,-0.125 0.125,-0.171875 0,-0.0625 -0.0625,-0.09375 -0.109375,-0.09375 -0.15625,0 -1.140625,0.859375 -1.71875,2.03125 -0.609375,1.21875 -0.890625,2.484375 -0.890625,3.96875 0,1.0625 0.171875,2.484375 0.78125,3.75 C 2.671875,2.21875 3.640625,3 3.78125,3 3.828125,3 3.890625,2.96875 3.890625,2.90625 Z m 0,0"
               style="stroke:none"
               inkscape:connector-curvature="0" />
          </symbol>
          <symbol
             id="lx-text908-9-1-7-5-4-glyph0-5"
             overflow="visible"
             style="overflow:visible">
            <path
               id="path5029"
               d="M 3.375,-2.96875 C 3.375,-3.890625 3.25,-5.359375 2.578125,-6.75 1.875,-8.1875 0.890625,-8.96875 0.765625,-8.96875 c -0.046875,0 -0.109375,0.03125 -0.109375,0.09375 0,0.046875 0,0.0625 0.203125,0.265625 1.203125,1.203125 1.859375,3.1875 1.859375,5.625 0,2.3125 -0.5625,4.3125 -1.9375,5.71875 C 0.65625,2.84375 0.65625,2.875 0.65625,2.90625 0.65625,2.96875 0.71875,3 0.765625,3 0.921875,3 1.90625,2.140625 2.484375,0.96875 3.09375,-0.25 3.375,-1.546875 3.375,-2.96875 Z m 0,0"
               style="stroke:none"
               inkscape:connector-curvature="0" />
          </symbol>
          <symbol
             id="lx-text908-9-1-7-5-4-glyph1-0"
             overflow="visible"
             style="overflow:visible">
            <path
               id="path5032"
               d=""
               style="stroke:none"
               inkscape:connector-curvature="0" />
          </symbol>
          <symbol
             id="lx-text908-9-1-7-5-4-glyph1-1"
             overflow="visible"
             style="overflow:visible">
            <path
               id="path5035"
               d="m 5.671875,-4.875 c -0.390625,0.0625 -0.53125,0.359375 -0.53125,0.578125 0,0.296875 0.21875,0.390625 0.390625,0.390625 0.359375,0 0.609375,-0.3125 0.609375,-0.640625 0,-0.5 -0.578125,-0.71875 -1.078125,-0.71875 -0.71875,0 -1.125,0.71875 -1.234375,0.9375 -0.28125,-0.890625 -1.015625,-0.9375 -1.234375,-0.9375 -1.21875,0 -1.859375,1.5625 -1.859375,1.828125 0,0.046875 0.046875,0.109375 0.125,0.109375 0.09375,0 0.125,-0.078125 0.140625,-0.125 0.40625,-1.328125 1.21875,-1.578125 1.5625,-1.578125 0.53125,0 0.640625,0.5 0.640625,0.78125 0,0.265625 -0.078125,0.546875 -0.21875,1.125 L 2.578125,-1.5 c -0.171875,0.71875 -0.515625,1.375 -1.15625,1.375 -0.0625,0 -0.359375,0 -0.609375,-0.15625 C 1.25,-0.359375 1.34375,-0.71875 1.34375,-0.859375 1.34375,-1.09375 1.15625,-1.25 0.9375,-1.25 c -0.296875,0 -0.609375,0.265625 -0.609375,0.640625 0,0.5 0.5625,0.734375 1.078125,0.734375 0.578125,0 0.984375,-0.453125 1.234375,-0.953125 C 2.828125,-0.125 3.4375,0.125 3.875,0.125 5.09375,0.125 5.734375,-1.453125 5.734375,-1.703125 5.734375,-1.765625 5.6875,-1.8125 5.625,-1.8125 5.515625,-1.8125 5.5,-1.75 5.46875,-1.65625 5.140625,-0.609375 4.453125,-0.125 3.90625,-0.125 3.484375,-0.125 3.265625,-0.4375 3.265625,-0.921875 3.265625,-1.1875 3.3125,-1.375 3.5,-2.15625 L 3.921875,-3.796875 C 4.09375,-4.5 4.5,-5.03125 5.0625,-5.03125 c 0.015625,0 0.359375,0 0.609375,0.15625 z m 0,0"
               style="stroke:none"
               inkscape:connector-curvature="0" />
          </symbol>
        </g>
      </defs>
      <g
         id="lx-text908-9-1-7-5-4-surface1">
        <g
           id="g5050"
           style="fill:#000000;fill-opacity:1">
          <use
             id="use5042"
             y="0"
             x="0"
             xlink:href="#lx-text908-9-1-7-5-4-glyph0-1"
             width="100%"
             height="100%" />
          <use
             id="use5044"
             y="0"
             x="4.6170979"
             xlink:href="#lx-text908-9-1-7-5-4-glyph0-2"
             width="100%"
             height="100%" />
          <use
             id="use5046"
             y="0"
             x="7.8689132"
             xlink:href="#lx-text908-9-1-7-5-4-glyph0-3"
             width="100%"
             height="100%" />
          <use
             id="use5048"
             y="0"
             x="14.372541"
             xlink:href="#lx-text908-9-1-7-5-4-glyph0-4"
             width="100%"
             height="100%" />
        </g>
        <g
           id="g5054"
           style="fill:#000000;fill-opacity:1">
          <use
             id="use5052"
             y="0"
             x="18.924999"
             xlink:href="#lx-text908-9-1-7-5-4-glyph1-1"
             width="100%"
             height="100%" />
        </g>
        <g
           id="g5058"
           style="fill:#000000;fill-opacity:1">
          <use
             id="use5056"
             y="0"
             x="25.577"
             xlink:href="#lx-text908-9-1-7-5-4-glyph0-5"
             width="100%"
             height="100%" />
        </g>
      </g>
    </g>
    <g
       id="lx-text908-9-1-7-5-4-7"
       transform="matrix(0.352778,0,0,0.352778,118.45853,0.82584723)">
      <defs
         id="defs5088">
        <g
           id="g5086">
          <symbol
             id="lx-text908-9-1-7-5-4-7-glyph0-0"
             overflow="visible"
             style="overflow:visible">
            <path
               id="path5062"
               d=""
               style="stroke:none"
               inkscape:connector-curvature="0" />
          </symbol>
          <symbol
             id="lx-text908-9-1-7-5-4-7-glyph0-1"
             overflow="visible"
             style="overflow:visible">
            <path
               id="path5065"
               d="m 4.328125,-4.421875 c -0.140625,0 -0.59375,0 -0.59375,0.484375 0,0.296875 0.203125,0.5 0.5,0.5 0.265625,0 0.5,-0.171875 0.5,-0.515625 0,-0.796875 -0.84375,-1.375 -1.8125,-1.375 -1.390625,0 -2.5,1.234375 -2.5,2.75 0,1.53125 1.140625,2.703125 2.5,2.703125 1.578125,0 1.9375,-1.4375 1.9375,-1.546875 0,-0.109375 -0.09375,-0.109375 -0.125,-0.109375 -0.109375,0 -0.125,0.03125 -0.15625,0.1875 C 4.3125,-0.5 3.671875,-0.140625 3.03125,-0.140625 c -0.734375,0 -1.703125,-0.640625 -1.703125,-2.453125 0,-1.984375 1.015625,-2.46875 1.609375,-2.46875 0.453125,0 1.109375,0.171875 1.390625,0.640625 z m 0,0"
               style="stroke:none"
               inkscape:connector-curvature="0" />
          </symbol>
          <symbol
             id="lx-text908-9-1-7-5-4-7-glyph0-2"
             overflow="visible"
             style="overflow:visible">
            <path
               id="path5068"
               d="m 5.484375,-2.5625 c 0,-1.53125 -1.171875,-2.765625 -2.5625,-2.765625 -1.421875,0 -2.5625,1.265625 -2.5625,2.765625 0,1.53125 1.1875,2.6875 2.5625,2.6875 1.40625,0 2.5625,-1.171875 2.5625,-2.6875 z m -2.5625,2.421875 c -0.4375,0 -0.96875,-0.1875 -1.3125,-0.78125 -0.328125,-0.53125 -0.34375,-1.234375 -0.34375,-1.75 0,-0.453125 0,-1.171875 0.375,-1.71875 C 1.96875,-4.90625 2.5,-5.09375 2.921875,-5.09375 c 0.453125,0 0.96875,0.21875 1.28125,0.6875 0.375,0.546875 0.375,1.296875 0.375,1.734375 0,0.421875 0,1.171875 -0.3125,1.734375 C 3.9375,-0.375 3.375,-0.140625 2.921875,-0.140625 Z m 0,0"
               style="stroke:none"
               inkscape:connector-curvature="0" />
          </symbol>
          <symbol
             id="lx-text908-9-1-7-5-4-7-glyph0-3"
             overflow="visible"
             style="overflow:visible">
            <path
               id="path5071"
               d="m 3.921875,-5.0625 c 0,-0.203125 0,-0.265625 -0.125,-0.265625 -0.09375,0 -0.3125,0.265625 -0.40625,0.375 -0.359375,-0.3125 -0.734375,-0.375 -1.125,-0.375 -1.4375,0 -1.875,0.78125 -1.875,1.4375 0,0.140625 0,0.5625 0.453125,0.96875 0.390625,0.34375 0.796875,0.421875 1.34375,0.53125 0.65625,0.125 0.8125,0.171875 1.109375,0.40625 0.21875,0.171875 0.375,0.4375 0.375,0.78125 C 3.671875,-0.6875 3.375,-0.125 2.3125,-0.125 1.53125,-0.125 0.953125,-0.578125 0.6875,-1.765625 0.640625,-1.984375 0.640625,-2 0.640625,-2.015625 0.609375,-2.0625 0.5625,-2.0625 0.53125,-2.0625 0.390625,-2.0625 0.390625,-2 0.390625,-1.78125 v 1.625 c 0,0.21875 0,0.28125 0.125,0.28125 0.0625,0 0.0625,-0.015625 0.265625,-0.265625 C 0.84375,-0.234375 0.84375,-0.25 1.03125,-0.4375 1.484375,0.125 2.125,0.125 2.328125,0.125 c 1.25,0 1.875,-0.703125 1.875,-1.640625 0,-0.640625 -0.390625,-1.03125 -0.5,-1.140625 -0.421875,-0.375 -0.75,-0.4375 -1.546875,-0.578125 -0.34375,-0.078125 -1.21875,-0.25 -1.21875,-0.96875 0,-0.359375 0.25,-0.90625 1.328125,-0.90625 1.296875,0 1.375,1.109375 1.390625,1.46875 0.015625,0.109375 0.09375,0.109375 0.140625,0.109375 0.125,0 0.125,-0.0625 0.125,-0.28125 z m 0,0"
               style="stroke:none"
               inkscape:connector-curvature="0" />
          </symbol>
          <symbol
             id="lx-text908-9-1-7-5-4-7-glyph0-4"
             overflow="visible"
             style="overflow:visible">
            <path
               id="path5074"
               d="m 3.890625,2.90625 c 0,-0.03125 0,-0.0625 -0.203125,-0.265625 C 2.484375,1.4375 1.8125,-0.53125 1.8125,-2.96875 c 0,-2.328125 0.5625,-4.328125 1.953125,-5.734375 0.125,-0.109375 0.125,-0.125 0.125,-0.171875 0,-0.0625 -0.0625,-0.09375 -0.109375,-0.09375 -0.15625,0 -1.140625,0.859375 -1.71875,2.03125 -0.609375,1.21875 -0.890625,2.484375 -0.890625,3.96875 0,1.0625 0.171875,2.484375 0.78125,3.75 C 2.671875,2.21875 3.640625,3 3.78125,3 3.828125,3 3.890625,2.96875 3.890625,2.90625 Z m 0,0"
               style="stroke:none"
               inkscape:connector-curvature="0" />
          </symbol>
          <symbol
             id="lx-text908-9-1-7-5-4-7-glyph0-5"
             overflow="visible"
             style="overflow:visible">
            <path
               id="path5077"
               d="M 3.375,-2.96875 C 3.375,-3.890625 3.25,-5.359375 2.578125,-6.75 1.875,-8.1875 0.890625,-8.96875 0.765625,-8.96875 c -0.046875,0 -0.109375,0.03125 -0.109375,0.09375 0,0.046875 0,0.0625 0.203125,0.265625 1.203125,1.203125 1.859375,3.1875 1.859375,5.625 0,2.3125 -0.5625,4.3125 -1.9375,5.71875 C 0.65625,2.84375 0.65625,2.875 0.65625,2.90625 0.65625,2.96875 0.71875,3 0.765625,3 0.921875,3 1.90625,2.140625 2.484375,0.96875 3.09375,-0.25 3.375,-1.546875 3.375,-2.96875 Z m 0,0"
               style="stroke:none"
               inkscape:connector-curvature="0" />
          </symbol>
          <symbol
             id="lx-text908-9-1-7-5-4-7-glyph1-0"
             overflow="visible"
             style="overflow:visible">
            <path
               id="path5080"
               d=""
               style="stroke:none"
               inkscape:connector-curvature="0" />
          </symbol>
          <symbol
             id="lx-text908-9-1-7-5-4-7-glyph1-1"
             overflow="visible"
             style="overflow:visible">
            <path
               id="path5083"
               d="m 5.671875,-4.875 c -0.390625,0.0625 -0.53125,0.359375 -0.53125,0.578125 0,0.296875 0.21875,0.390625 0.390625,0.390625 0.359375,0 0.609375,-0.3125 0.609375,-0.640625 0,-0.5 -0.578125,-0.71875 -1.078125,-0.71875 -0.71875,0 -1.125,0.71875 -1.234375,0.9375 -0.28125,-0.890625 -1.015625,-0.9375 -1.234375,-0.9375 -1.21875,0 -1.859375,1.5625 -1.859375,1.828125 0,0.046875 0.046875,0.109375 0.125,0.109375 0.09375,0 0.125,-0.078125 0.140625,-0.125 0.40625,-1.328125 1.21875,-1.578125 1.5625,-1.578125 0.53125,0 0.640625,0.5 0.640625,0.78125 0,0.265625 -0.078125,0.546875 -0.21875,1.125 L 2.578125,-1.5 c -0.171875,0.71875 -0.515625,1.375 -1.15625,1.375 -0.0625,0 -0.359375,0 -0.609375,-0.15625 C 1.25,-0.359375 1.34375,-0.71875 1.34375,-0.859375 1.34375,-1.09375 1.15625,-1.25 0.9375,-1.25 c -0.296875,0 -0.609375,0.265625 -0.609375,0.640625 0,0.5 0.5625,0.734375 1.078125,0.734375 0.578125,0 0.984375,-0.453125 1.234375,-0.953125 C 2.828125,-0.125 3.4375,0.125 3.875,0.125 5.09375,0.125 5.734375,-1.453125 5.734375,-1.703125 5.734375,-1.765625 5.6875,-1.8125 5.625,-1.8125 5.515625,-1.8125 5.5,-1.75 5.46875,-1.65625 5.140625,-0.609375 4.453125,-0.125 3.90625,-0.125 3.484375,-0.125 3.265625,-0.4375 3.265625,-0.921875 3.265625,-1.1875 3.3125,-1.375 3.5,-2.15625 L 3.921875,-3.796875 C 4.09375,-4.5 4.5,-5.03125 5.0625,-5.03125 c 0.015625,0 0.359375,0 0.609375,0.15625 z m 0,0"
               style="stroke:none"
               inkscape:connector-curvature="0" />
          </symbol>
        </g>
      </defs>
      <g
         id="lx-text908-9-1-7-5-4-7-surface1">
        <g
           id="g5098"
           style="fill:#000000;fill-opacity:1">
          <use
             id="use5090"
             y="0"
             x="0"
             xlink:href="#lx-text908-9-1-7-5-4-7-glyph0-1"
             width="100%"
             height="100%" />
          <use
             id="use5092"
             y="0"
             x="5.2029028"
             xlink:href="#lx-text908-9-1-7-5-4-7-glyph0-2"
             width="100%"
             height="100%" />
          <use
             id="use5094"
             y="0"
             x="11.056169"
             xlink:href="#lx-text908-9-1-7-5-4-7-glyph0-3"
             width="100%"
             height="100%" />
          <use
             id="use5096"
             y="0"
             x="15.673267"
             xlink:href="#lx-text908-9-1-7-5-4-7-glyph0-4"
             width="100%"
             height="100%" />
        </g>
        <g
           id="g5102"
           style="fill:#000000;fill-opacity:1">
          <use
             id="use5100"
             y="0"
             x="20.226"
             xlink:href="#lx-text908-9-1-7-5-4-7-glyph1-1"
             width="100%"
             height="100%" />
        </g>
        <g
           id="g5106"
           style="fill:#000000;fill-opacity:1">
          <use
             id="use5104"
             y="0"
             x="26.878"
             xlink:href="#lx-text908-9-1-7-5-4-7-glyph0-5"
             width="100%"
             height="100%" />
        </g>
      </g>
    </g>
    <path
       style="fill:none;stroke:#000000;stroke-width:0.26458332px;stroke-linecap:butt;stroke-linejoin:miter;stroke-opacity:1"
       d="M 78.123124,0.9256679 73.08169,2.684307"
       id="path5265"
       inkscape:connector-curvature="0" />
    <path
       style="fill:none;stroke:#000000;stroke-width:0.26458332px;stroke-linecap:butt;stroke-linejoin:miter;stroke-opacity:1"
       d="m 129.82711,1.0429106 4.80695,2.4620947"
       id="path5267"
       inkscape:connector-curvature="0" />
  </g>
</svg>
